<?xml version="1.0" standalone="no"?>
<!DOCTYPE svg PUBLIC "-//W3C//DTD SVG 1.1//EN" "http://www.w3.org/Graphics/SVG/1.1/DTD/svg11.dtd" >
<svg xmlns="http://www.w3.org/2000/svg" xmlns:xlink="http://www.w3.org/1999/xlink" version="1.1">
<metadata>
Created by FontForge 20170924 at Sat Apr 28 09:32:18 2018
 By www-data
TellurideTypeface (c)Trademark of Wildones 2018 All Rights Reserved.
</metadata>
<defs>
<font id="AlojaLigh" horiz-adv-x="1113" >
  <font-face 
    font-family="Aloja Ligh"
    font-weight="400"
    font-stretch="normal"
    units-per-em="2048"
    panose-1="2 0 5 0 0 0 0 0 0 0"
    ascent="1638"
    descent="-410"
    x-height="1483"
    cap-height="1851"
    bbox="-295.091 -637.857 1829 2247.47"
    underline-thickness="150"
    underline-position="-292"
    unicode-range="U+001D-007A"
  />
<missing-glyph horiz-adv-x="1024" 
 />
    <glyph glyph-name=".notdef" horiz-adv-x="1024" 
 />
    <glyph glyph-name="uni001D" horiz-adv-x="0" 
 />
    <glyph glyph-name="uni001D" horiz-adv-x="0" 
 />
    <glyph glyph-name="glyph2" horiz-adv-x="508" 
 />
    <glyph glyph-name="exclam" unicode="!" horiz-adv-x="606" 
d="M367 863q5 -284 -92 -503q-61 -139 -208 -106q-28 6 -30 46q-21 360 -10 676q8 216 -11 384q-16 137 5 352q11 118 0 299q-6 97 5 171q11 71 99 65q101 -6 169 -71q67 -65 80 -167l7 -68l2 -33l3 -30q-29 -410 -19 -1015zM152 -215q-115 3 -113 122q0 35 46 72
q45 37 88 38q29 0 54 -37q24 -37 23 -81q-2 -116 -98 -114z" />
    <glyph glyph-name="quotedbl" unicode="&#x22;" horiz-adv-x="544" 
d="M242 1601q-27 48 -62 72l-4 3l-4 2q-5 2 -9 -3q-31 -42 -16 -72q10 -22 14 -45q8 -33 31 -82l18 -39q10 -22 16 -39l9 -24l10 -24q11 -25 26 -43q17 -19 37 -3q16 13 26 53q10 41 2 60q-39 87 -94 184zM84 1542q-29 66 -76 5q-6 -8 -8 -45v-5l1 -7q1 -10 2 -17l18 -80
q11 -49 17 -81l10 -60l11 -61q13 -70 28 -120q4 -16 18 -19q7 -2 13 2l4 4l3 5q34 49 51 76q9 15 9 43q0 17 -6 41l-5 20l-4 20q-24 135 -86 279z" />
    <glyph glyph-name="numbersign" unicode="#" horiz-adv-x="1696" 
d="M934 1038q1 35 -32 29l-150 -26l-150 -25q-30 -5 -29 -31l1 -85v-84q-2 -95 -15 -168q-4 -21 20 -20l314 17q32 1 33 37q1 37 4 87l2 40l2 37v192zM269 210l-1 124l2 123q0 36 -37 36q-120 1 -204 22l-8 1l-9 1q-9 2 -11 11q-1 8 6 13l7 4l7 4q42 24 109 35l57 7l56 8
q33 7 34 31l17 312q2 29 -29 35l-86 18l-87 21l-6 2l-6 2q-6 3 -5 9q2 13 14 21q69 45 147 50q68 5 69 75q1 78 6 198l9 198q1 33 27 54q28 22 55 9q66 -31 96 -59q44 -42 46 -101l4 -56l6 -56q6 -68 1 -113q-9 -73 10 -91q18 -18 92 -9l248 28q32 3 34 34l13 215l13 215
q2 43 45 34q19 -5 45 -16l21 -10l22 -10q20 -9 21 -36l4 -125q4 -73 10 -124l5 -35l5 -34q5 -40 4 -69q-1 -15 11 -18l10 -1l12 1l119 7l120 6l21 1l22 -1q24 -3 27 -21q2 -14 -21 -21l-21 -5l-19 -4q-26 -8 -60 -14l-61 -11q-79 -13 -120 -26q-43 -14 -34 -56
q16 -68 16 -167l-1 -83v-84q1 -38 36 -38q98 3 253 1l5 1l6 1q8 2 12 1q13 -1 1 -24v-5l3 -4q12 -14 11 -18q-1 -3 -19 -13q-37 -20 -103 -24l-53 -3q-30 -3 -52 -9l-12 -1l-11 -2q-63 -13 -84 -53q-19 -35 -21 -122q-2 -125 -7 -189q-7 -105 -26 -188l-16 -76l-14 -78
q-5 -26 -12 -40q-10 -20 -29 -27q-16 -6 -31 8l-12 13l-12 12q-48 38 -53 120q-21 295 -13 537q1 31 -33 29l-318 -21q-22 -1 -28 -16l-3 -15l-1 -16l-10 -197q-6 -118 -14 -196l-5 -48l-8 -49q-13 -54 -42 -90q-7 -8 -7 -21v-22q0 -25 -23 -40q-24 -15 -51 -5
q-46 16 -77 65t-32 107l-1 123l1 123h6z" />
    <glyph glyph-name="dollar" unicode="$" horiz-adv-x="991" 
d="M505 226q-4 -36 -22 -77l-18 -36l-20 -36l-4 -4l-5 -3l-1 11l18 243v5v4q1 5 6 6q3 0 7 -4q4 -3 6 -7q22 -42 33 -102zM375 1105l-1 -69l-1 -70l-2 -7l-3 -6l-5 5l-4 6q-14 26 -20 61q-4 21 -6 63l1 43l2 41q6 48 31 78l10 14l4 -10l2 -9q-7 -58 -8 -140zM506 1504l-8 4
l-8 4q-7 6 -6 18q7 68 0 190l-5 94q-2 53 0 94l-3 26l-4 24l-2 8l-3 8q-5 8 -11 6q-13 -4 -28 -12q-16 -8 -15 -12q4 -19 -8 -32l-12 -10l-13 -9q-24 -19 -27 -38q-13 -106 7 -159q10 -25 7 -54l-4 -25l-5 -25l-7 -25l-6 -24q-4 -26 -35 -30q-155 -21 -256 -192
q-42 -70 -50 -170q-4 -39 -3 -90l4 -91q1 -31 19 -76q85 -214 293 -427q23 -23 21 -44l-9 -176q-5 -99 -4 -177v-5v-5q-1 -6 -7 -7q-2 0 -6 4t-6 8l-32 60l-30 61l-16 41l-16 42q-20 51 -36 81l-2 4l-2 4q-2 4 -7 4l-2 -2l-2 -4l-7 -45l-6 -46q-3 -52 16 -92l25 -55
q15 -33 28 -53q35 -58 87 -85q44 -23 42 -74q-2 -71 22 -141l3 -8l4 -7q6 -6 16 -5q13 3 15 23l8 54q4 32 4 54q-1 68 59 54q19 -4 48 5q13 4 40 10l41 11q47 15 67 49q52 90 75 183q43 176 -91 349l-89 111l-90 110q-16 21 -14 44q11 109 10 257l-2 128l-2 128q-1 17 10 26
q69 60 128 -10q39 -46 46 -84q8 -45 36 -101l24 -48l23 -48l3 -7l4 -6q6 -7 14 -6q18 3 19 24q6 140 -27 211q-67 140 -244 226z" />
    <glyph glyph-name="percent" unicode="%" horiz-adv-x="1264" 
d="M24 85l22 53l23 54q71 170 226 461l120 228q67 129 113 231q139 310 328 539q14 17 38 40l41 38q41 41 81 -22q48 -75 1 -205q-82 -229 -243 -540l-139 -262q-87 -164 -137 -263q-57 -114 -156 -270l-84 -132l-84 -132q-18 -28 -66 -17l-23 8l-21 10q-28 14 -46 17
q-14 2 -16 20l-1 20l-1 24q1 41 24 100zM769 166l-3 23l-5 23q-17 59 -62 15q-37 -36 -52 -92q-10 -34 -15 -102q-4 -55 63 -71q21 -4 36 12l11 16l10 16q14 22 21 55l5 31l5 31q-11 15 -14 43zM547 241l27 62q17 38 26 63q14 43 55 67q14 8 37 18l39 17q28 13 91 -20
q62 -34 92 -77q100 -149 5 -376q-11 -24 -37 -68q-53 -88 -130 -57q-17 7 -42 10l-43 3q-53 4 -80 25q-70 55 -65 209q-5 52 25 124zM278 1418l-5 33q-7 41 -19 72q-8 18 -15 26q-11 12 -29 12q-19 1 -29 -12q-6 -9 -11 -28l-15 -61q-7 -35 -7 -61q-3 -114 56 -182
q23 -27 37 4q41 88 41 168zM372 1174q-42 -46 -139 -26q-97 19 -131 82q-79 148 -10 343q9 26 39 42l10 6l10 7q10 8 10 20q1 36 22 42q8 2 21 -1l25 -5l29 -9l29 -8q82 -18 133 -85q51 -68 50 -156q0 -146 -98 -252z" />
    <glyph glyph-name="ampersand" unicode="&#x26;" horiz-adv-x="1383" 
d="M351 1162q17 -29 31 2l70 159l69 160q31 74 -21 139q-38 49 -66 0l-12 -18l-12 -18q-14 -21 -20 -37q-5 -13 -13 -20q-9 -9 -20 -8q-30 5 -42 -14q-5 -7 -7 -19l-4 -23l-6 -43l-2 -19l-2 -16q10 -148 57 -225zM535 -24l19 3q30 7 61 44q32 38 24 58l-160 418l-1 6l-3 7
q-3 8 -9 7q-4 0 -9 -7l-9 -12q-18 -24 -34 -59l-14 -32l-13 -32q-74 -182 8 -316q39 -65 118 -88zM155 752l58 107l61 107q17 29 1 60q-89 175 -100 278l-9 89q-4 51 -2 88q6 98 61 171q116 153 334 133q102 -10 178 -88q77 -79 79 -180q1 -55 -15 -128l-16 -64l-17 -64
q-26 -102 -85 -231l-51 -112l-53 -111q-39 -86 -9 -173l72 -206q42 -119 76 -205q21 -52 51 -7l94 140q56 82 98 138q35 48 93 151l44 77q25 42 49 73q13 18 33 27l2 -20l1 -20q-2 -74 -23 -162q-13 -53 -45 -156q-11 -35 -39 -77l-26 -36l-27 -35q-32 -41 -68 -99l-62 -102
l-10 -19q-6 -11 -11 -17q-68 -68 -4 -156q53 -71 101 -221l4 -7l4 -8l7 -12l9 -12q11 -14 5 -18q-9 -7 -22 3l-11 11l-11 9q-84 64 -177 178q-37 45 -83 3q-109 -100 -200 -92l-26 1h-27q-31 2 -50 16l-9 4q-5 1 -8 0q-47 -25 -92 3l-19 13l-18 15q-23 20 -36 28
q-72 42 -124 127q-20 33 -41 79l-35 82q-9 19 -9 49l1 25v25q10 260 154 528z" />
    <glyph glyph-name="quotesingle" unicode="'" horiz-adv-x="540" 
d="M21 1510q-21 40 42 98q8 7 16 4l7 -3l6 -4q59 -32 100 -98q81 -131 136 -248q12 -26 -13 -81q-25 -56 -57 -74q-38 -20 -64 6q-24 23 -41 58l-13 32l-11 32q-8 23 -22 54l-26 52q-33 67 -41 111q-3 31 -19 61z" />
    <glyph glyph-name="parenleft" unicode="(" horiz-adv-x="912" 
d="M633 -242l-7 12q-154 210 -194 591q-57 528 165 1141l18 44l22 44q28 57 39 88q36 105 -20 195q-21 34 -32 41q-17 9 -43 -13l-33 -26l-32 -28q-36 -32 -56 -61q-137 -205 -205 -341q-106 -211 -154 -489q-101 -446 18 -771q129 -351 450 -562q12 -8 32 -15l33 -12
q11 -4 21 -2q11 2 11 12q1 12 7 37l7 37q4 44 -37 67q-5 3 -10 11z" />
    <glyph glyph-name="parenright" unicode=")" horiz-adv-x="816" 
d="M584 587v-85l3 -86q9 -146 -54 -317q-21 -56 -62 -146l-33 -72l-32 -73q-27 -14 -57 -40l-25 -25l-26 -24q-63 -61 -123 -69q-28 -4 -69 -21l-34 -14l-34 -13l-8 -3l-10 -3q-10 -1 -16 7q-4 6 0 15l5 7l4 7l58 145l57 144q60 162 98 293q95 330 85 616q-13 364 -100 677
q-18 65 -60 142l-40 66l-40 66q-25 40 -38 67q-17 34 9 57q10 9 21 0l10 -8l9 -7l30 -14l30 -10q152 -33 263 -247q63 -121 100 -289q14 -64 27 -151l24 -152q26 -173 26 -283q3 -47 2 -157z" />
    <glyph glyph-name="asterisk" unicode="*" horiz-adv-x="778" 
d="M307 1123l5 -47q6 -53 6 -93v-6v-6q0 -6 -6 -9t-11 1l-4 4l-4 4q-39 46 -44 120v15l-2 15q-3 16 -15 20q-11 4 -21 -8l-7 -12l-7 -11q-21 -31 -57 -63l-33 -27l-34 -26q-6 -5 -16 -9l-19 -5q-5 -1 -7 2q-1 4 2 8q15 16 25 55l9 30q5 17 14 28q5 6 12 12l13 9q17 11 22 23
l4 6l5 6q5 8 3 14q-1 2 -9 1l-8 -1h-7l-34 -3l-35 -3l-13 -1l-13 -1q-15 1 -18 10q-3 10 7 22l10 11l10 9q23 22 65 32l35 6q22 4 35 8l7 2l6 2q7 2 7 3q0 6 -6 10l-5 3l-6 4l-128 96l-5 3l-3 4q-4 4 -2 9q2 4 8 4l4 -1l4 -1q71 12 131 -21q18 -10 15 12l-8 63q-4 25 15 39
q8 6 16 0l7 -6l7 -5q29 -16 38 -49q3 -11 5 -30l4 -31l1 -8l1 -7q1 -9 8 -12q1 0 7 8l5 6l4 7q52 78 111 114l6 4l6 4q8 3 13 -3q5 -5 3 -13l-3 -6l-4 -6l-87 -151l-4 -5l-3 -5q-4 -5 0 -10q3 -4 10 -3l6 1l6 2q33 8 89 10l44 1l45 4q18 3 8 -13q-11 -18 -24 -22l-73 -25
l-12 -4l-12 -3q-14 -3 -22 -11l16 -17l18 -17l20 -18q12 -9 22 -14q23 -11 19 -28q-5 -25 -32 -23q-79 5 -128 53l-9 8l-8 8l-10 7l-10 7q-1 -16 -2 -22z" />
    <glyph glyph-name="plus" unicode="+" horiz-adv-x="1239" 
d="M1036 708l-4 18q-7 20 -31 23l-165 18l-164 16q-45 4 -49 45l-5 52l-7 52q-8 63 -5 104q10 139 -127 209q-73 37 -76 -42l-9 -191l-7 -192q-2 -48 -50 -54q-184 -20 -327 -42q-10 -17 -7 -36t21 -36q124 -27 308 -10q52 5 55 -53l9 -173l12 -173h6l7 -24
q31 -119 114 -113q90 7 91 129l3 183v184q-1 67 63 68l153 3q91 2 153 -2l13 -1l14 2q14 4 12 18z" />
    <glyph glyph-name="comma" unicode="," horiz-adv-x="431" 
d="M168 89l16 -31l16 -31q21 -43 12 -96q-4 -21 -13 -48l-18 -46q-27 -71 -141 -127l-7 -2q-3 -1 -5 3q-1 4 0 8q0 5 2 7q117 113 38 314l-31 79l-30 79q-7 18 11 35q25 24 52 5q30 -22 44 -36q22 -23 31 -50q6 -28 23 -63z" />
    <glyph glyph-name="period" unicode="." horiz-adv-x="492" 
d="M260 55q-32 -54 -66 -55q-59 -2 -126 59q-68 61 -67 115q1 39 49 94q49 55 84 56q60 2 108 -47q47 -49 49 -114q1 -54 -31 -108z" />
    <glyph glyph-name="slash" unicode="/" horiz-adv-x="873" 
d="M403 600l29 115l29 116q35 140 59 239q10 45 27 110l15 59l16 61q42 157 60 251q25 132 -39 179q-30 21 -76 13q-47 -8 -68 -40q-61 -95 -77 -172l-32 -148l-35 -149q-44 -190 -65 -296q-20 -105 -50 -243l-55 -243q-69 -308 -98 -485l-17 -107q-9 -59 -13 -105
q-13 -147 126 -114l24 4q14 2 22 6q24 10 31 49l87 454q32 174 100 446z" />
    <glyph glyph-name="zero" unicode="0" horiz-adv-x="1254" 
d="M885 1048l-1 82q-5 253 -117 386q-27 32 -70 38q-45 6 -65 -25l-30 -45l-29 -45q-34 -53 -49 -99l-46 -137l-43 -138q-85 -290 -8 -630q10 -46 32 -102q14 -35 43 -98q20 -42 62 -53q16 -4 39 -4h40q65 2 113 93q128 245 129 696v81zM969 463q-9 -29 -16 -66l-12 -65
q-14 -85 -33 -131q-119 -286 -377 -208q-531 160 -516 809q10 401 246 771q158 247 388 215l45 -6l46 -10q50 -14 86 -43q57 -47 70 -128q5 -36 36 -60q23 -17 37 -54l10 -34l8 -33l24 -97q15 -59 22 -91q21 -99 17 -145q-10 -417 -81 -624z" />
    <glyph glyph-name="one" unicode="1" horiz-adv-x="877" 
d="M502 -8l-29 3q-37 2 -57 -19l-5 -2l-6 1q-65 31 -157 30l-81 -4l-80 -5l-14 4l-13 5l-19 1l-20 3q-21 4 -20 17q2 17 25 22l22 3l20 3l63 10l63 7q27 3 24 23q-12 83 -9 209l4 105l2 104l-5 388l-7 388q-1 34 -8 85l-12 86q-3 25 -28 15q-37 -15 -83 -12q2 18 17 37
l13 15l13 15l39 49l39 48q47 57 87 91q74 63 147 11q76 -54 76 -128l-1 -267l-3 -267v-276v-277l-5 -200q-4 -122 -3 -200q0 -36 34 -40l52 -5l52 -7q20 -3 32 -12q16 -11 16 -27q0 -17 -16 -23l-15 -3l-15 -1l-49 -1h-52q-11 -3 -28 -2z" />
    <glyph glyph-name="two" unicode="2" horiz-adv-x="1208" 
d="M953 78l-27 9q-34 13 -54 13l-258 13l-257 14q-32 1 -22 34q8 28 30 64l18 31l17 30l159 306l156 306l67 134q36 76 61 136q64 155 86 289q25 156 -64 205l-56 31l-57 29q-66 31 -126 40q-222 36 -367 -138q-53 -64 -70 -130q-6 -22 12 -37l5 -4l5 -4q7 -4 12 1l14 9
l14 9q17 11 25 23q72 111 151 181q30 27 76 34q47 8 81 -10q35 -18 42 -53q3 -13 3 -32l-2 -33q0 -68 -27 -147q-10 -30 -26 -68l-30 -68q-178 -401 -376 -707q-30 -46 -58 -131l-22 -66q-13 -38 -26 -65q-62 -124 -18 -204q43 -79 98 -96q89 -27 155 -26l197 4h196
q149 -1 276 19l10 1l10 3q9 4 11 15q1 10 -3 19q-5 10 -14 11z" />
    <glyph glyph-name="three" unicode="3" horiz-adv-x="1052" 
d="M667 1153q-94 114 -239 117l-18 -2l-19 -2q-22 -3 -24 6q-3 14 12 30l15 14l15 12q126 114 180 235q48 105 -16 186q-58 73 -144 66q-154 -11 -244 -128l-7 -9l-7 -9q-6 -12 2 -22q8 -8 21 -5l11 3l11 6l47 26q28 16 47 23l28 12l30 11q34 8 52 -9q16 -14 10 -47l-8 -29
l-10 -28q-47 -136 -169 -286q-40 -49 -16 -92q15 -27 46 -30l12 -1l12 -1q13 -1 19 -4l22 -3l18 -1q19 -3 30 -10q135 -91 114 -241q-49 -357 -318 -700l-81 -97l-80 -97l-9 -11l-7 -12q-5 -15 10 -22q43 -19 111 -29q117 -17 235 63l89 62q48 36 83 68q88 82 127 178
q12 30 40 81l22 39l20 41q70 156 61 289q-14 211 -136 359z" />
    <glyph glyph-name="four" unicode="4" horiz-adv-x="1171" 
d="M963 717l3 54q5 69 2 108q-4 40 -13 90l-15 90q-20 115 -24 181l-2 29l-4 29q-7 32 -29 53q-52 50 -122 26q-62 -22 -62 -81q1 -86 0 -209l-2 -103l-1 -101l-3 -31l-3 -29l-4 -54q-2 -29 -30 -29q-41 0 -120 -5q-192 -11 -289 -3q-29 2 -16 26q38 75 76 173l33 89l31 89
q108 310 121 538q4 76 -83 98q-75 19 -104 -50q-29 -71 -77 -202q-100 -270 -211 -664q-15 -53 5 -80q33 -43 85 -98l15 -16q9 -8 16 -12q20 -9 43 9q4 3 13 3h7h8l211 -3l211 -3q39 0 38 -39l-3 -207l-2 -56l-4 -57q-4 -67 6 -112l5 -22l8 -20q10 -21 31 -28q88 -27 161 36
q71 62 58 143q-3 16 2 34q42 193 33 363z" />
    <glyph glyph-name="five" unicode="5" horiz-adv-x="1466" 
d="M1130 1132q-90 126 -288 214q-138 61 -339 58q-54 -1 -53 54q0 70 -11 126q-12 61 -5 72q6 10 64 21q169 32 292 25q68 -3 142 24l7 4l6 6v1l-2 2l-3 4l-19 9l-19 9q-23 10 -39 11q-236 17 -504 -37q-55 -11 -64 -65q-7 -48 -9 -112l-2 -113q-2 -90 73 -140q9 -6 14 -7
q7 -2 11 5q8 17 20 13l10 -6l10 -7l24 -19l22 -19q28 -23 51 -29q88 -22 230 -126q93 -67 85 -194q-15 -250 -197 -437q-75 -78 -213 -141l-59 -26l-59 -25q-72 -31 -116 -54q-29 -15 -79 -30l-42 -11l-41 -12l-9 -5l-9 -7q-10 -10 1 -14q9 -3 18 -10l16 -13q18 -17 23 -18
q30 -4 79 -33l38 -21q21 -10 41 -13l78 -15l79 -15q93 -16 158 -16q11 6 20 8l16 3h15l41 1l15 5l112 38q21 8 45 22l42 27q54 38 84 48q44 14 74 54q10 13 24 36l22 38l37 59l36 60q102 157 97 439q-9 180 -91 294z" />
    <glyph glyph-name="six" unicode="6" horiz-adv-x="1196" 
d="M724 495q-12 -30 -31 -67l-35 -65q-29 -54 -108 -53q-53 0 -75 65q-75 219 -58 435q3 39 66 87q62 47 107 46l21 -3q13 -1 21 1q103 23 121 -105q12 -89 5 -198q-3 -68 -34 -143zM861 959q-224 105 -400 28q-23 -9 -18 15l17 91q10 52 14 91q16 141 107 349q26 60 14 124
q-13 68 -62 98q-121 76 -208 -48l-15 -23q-273 -451 -300 -895q-10 -48 -6 -121l5 -65l6 -67q18 -239 209 -446q36 -39 96 -62q23 -9 55 -18l56 -14q143 -40 225 30q15 13 40 27l22 12l22 12q51 30 71 69q170 330 157 637q-5 129 -107 176z" />
    <glyph glyph-name="seven" unicode="7" horiz-adv-x="1244" 
d="M916 1218q-59 12 -102 18q-40 6 -34 42l7 38l9 38q9 44 8 73q5 38 -1 98l-5 47l-1 47q5 166 -172 171q-101 3 -237 -9l-117 -12l-117 -13l-37 -3l-38 -3q-42 -8 -65 -38l-5 -7l-5 -7q-4 -8 7 -11l27 -9l26 -12q33 -14 55 -13l90 1h91q105 3 179 21q39 9 33 -29
q-32 -205 -63 -335q-11 -50 -64 -47q-96 4 -246 -18l-7 -1l-8 -1q-9 -3 -11 -11q-1 -9 6 -15l7 -4l7 -2l20 -7l20 -7q24 -7 43 -6q64 5 179 -13q24 -4 20 -32l-16 -101l-18 -101q-92 -433 -103 -772l-1 -47q0 -26 5 -44q13 -48 65 -71q39 -17 84 -8q49 10 61 46q5 18 15 39
l20 38q26 48 33 77q52 184 90 350l35 144l33 145q34 165 38 294q1 29 30 30l114 4l114 5h7h7q8 1 8 10q0 3 -6 7t-12 5z" />
    <glyph glyph-name="eight" unicode="8" horiz-adv-x="948" 
d="M243 1345q10 -51 27 -92l9 -16l7 7l7 8q31 48 55 120l20 63l19 63q5 16 4 39l-1 21l-2 20q-4 44 -49 28q-41 -14 -73 -66q-34 -53 -34 -111q4 -48 11 -84zM583 540q-19 43 -54 113l-29 56l-27 56q-12 24 -20 -2q-9 -32 -33 -92l-17 -46l-16 -46q-34 -108 -12 -196l16 -64
l19 -63q24 -70 61 -117q34 -43 71 -41q38 3 64 52q30 57 33 145q1 112 -56 245zM671 62q-66 -84 -155 -73l-49 5l-49 4q-60 6 -97 13q-147 29 -218 113q-71 83 -88 246q-15 140 30 272l39 115l40 114q48 128 97 222q17 33 -9 67q-119 157 -112 395q5 182 240 211
q161 21 233 -87q97 -144 76 -324q-28 -243 -117 -416q-6 -12 0 -25l6 -10l6 -10l50 -94l46 -94q49 -107 70 -200l12 -49l12 -50q13 -58 7 -99q10 -143 -70 -246z" />
    <glyph glyph-name="nine" unicode="9" horiz-adv-x="894" 
d="M172 1121q-46 13 -59 66q-29 122 32 304q21 62 37 91q26 47 70 73q69 42 103 23q30 -17 59 -99q6 -19 8 -49l1 -26l1 -25q-34 -232 -162 -336q-44 -36 -90 -22zM639 1630q-40 66 -138 85q-17 4 -41 16l-20 10l-20 9q-145 55 -228 -19q-73 -65 -133 -218
q-48 -121 -52 -201q-7 -110 55 -203q42 -61 134 -92q94 -31 150 2l7 6l7 6q9 7 15 3q8 -5 7 -17l-2 -10l-1 -10q0 -1 -1 -40q-12 -72 -28 -185l-12 -94l-14 -95q-33 -230 -74 -382q-20 -73 20 -194q7 -18 46 -32t55 -3q49 34 71 61q53 64 83 167q10 36 22 90l19 90
q24 106 43 241l16 122l15 121l19 151l18 151q17 174 3 305q-11 110 -41 159z" />
    <glyph glyph-name="colon" unicode=":" horiz-adv-x="398" 
d="M163 658q-3 -5 -17 -11q-16 -6 -35 -7h-12q-42 0 -67 26q-32 42 -32 80q0 25 14 49q30 50 78 50h2q41 0 72 -29q28 -25 28 -55q0 -5 -1 -10l-3 -24q-2 -14 -5 -24q-7 -28 -22 -45zM163 359q15 -17 22 -44q3 -11 5 -25l3 -24q1 -5 1 -10q0 -30 -28 -55q-31 -29 -72 -29
q-49 0 -80 50q-14 24 -14 49q0 38 32 80q25 27 68 27h11q19 -2 35 -8q14 -5 17 -11z" />
    <glyph glyph-name="less" unicode="&#x3c;" horiz-adv-x="1206" 
d="M751 1593q-9 -13 -25 -30l-26 -27q-180 -201 -428 -468q-14 -15 -10 -29l7 -11l8 -10q118 -144 247 -368q103 -181 221 -430l103 -218l101 -220l16 -33l15 -34q17 -38 21 -70q5 -31 -21 -33l-18 -3l-18 -2q-20 -3 -32 2l-34 14l-34 12q-46 16 -69 25q-77 35 -115 94
q-31 50 -77 116l-80 113q-100 141 -150 236q-65 124 -143 305l-65 155l-66 155l-63 139q-16 36 13 45q11 3 14 13q28 84 108 173l35 37l36 36q47 48 70 73q72 81 176 188l90 91l91 92l15 17l16 16q21 16 44 5q27 -12 40 -38q11 -20 13 -47q1 -45 -26 -81z" />
    <glyph glyph-name="equal" unicode="=" horiz-adv-x="1153" 
d="M793 606q-50 -2 -93 10q-66 12 -175 9l-87 -3q-50 -1 -86 2l-51 3l-50 1q-57 -1 -104 -16q-51 -17 -45 -69q5 -44 65 -99t102 -54q191 3 418 28q112 13 191 62l9 6l9 6q8 8 3 19q-39 99 -106 95zM827 948q-21 22 -69 33q-28 6 -70 6l-34 -1l-35 1q-236 11 -498 -42
q-121 -25 -36 -134q11 -14 72 -32l8 -1l12 -2q17 -2 30 -2l140 -1l141 -3l105 -6l105 -5q121 -5 210 2q28 1 40 25q5 11 1 23l-6 9l-7 8q-69 81 -109 122z" />
    <glyph glyph-name="greater" unicode="&#x3e;" horiz-adv-x="1042" 
d="M188 90l35 78q22 50 34 79q59 159 167 410l87 203l85 204q9 23 -10 41q-40 39 -121 102l-62 49l-60 51q-146 133 -288 360l-18 29q-10 16 -20 25q-17 17 -6 36q9 16 34 9q165 -54 314 -203l98 -96l97 -97q72 -74 107 -142q18 -35 51 -73l30 -33l30 -33l20 -22
q11 -13 18 -24l14 -24q7 -13 10 -23q8 -28 -10 -58q-47 -79 -94 -203l-39 -106l-39 -105q-31 -78 -96 -230l-48 -115l-48 -115l-14 -44l-11 -45q-14 -60 -26 -89q-43 -102 -126 -101l-22 -3l-23 -5q-26 -5 -44 13q-47 46 -42 139q-1 69 36 161z" />
    <glyph glyph-name="question" unicode="?" horiz-adv-x="993" 
d="M136 2004q-80 -43 -114 -127q-21 -55 -10 -125q4 -27 15 -62l19 -60l10 -28l12 -27q16 -29 40 -44q27 -17 45 7q17 22 -1 39q-62 58 -103 187q-24 76 36 145q61 70 149 63q35 -8 56 -15q32 -10 55 -24q59 -34 81 -100q27 -80 1 -184q-28 -108 -74 -256l-41 -127l-41 -127
q-109 -348 -63 -796q14 -145 156 -191q52 -17 73 30q51 117 59 359l4 96q3 54 8 96q12 106 41 187q119 325 143 657q12 166 -102 305q-116 139 -278 155q-98 9 -176 -33zM313 -38q-32 -22 -37 -58q-10 -87 93 -98q73 -8 82 105q2 28 -22 45q-9 6 -23 11l-22 7
q-38 11 -71 -12z" />
    <glyph glyph-name="at" unicode="@" horiz-adv-x="2029" 
d="M1144 1165q0 11 -12 25q-11 14 -24 19q-18 8 -39 8q-32 0 -71 -18q-64 -29 -70 -70q-13 -108 -16 -222v-13q0 -72 10 -214q4 -42 9 -71q7 -39 17 -60q12 -25 28 -25q18 0 42 31q277 162 126 610zM1595 1539q63 -76 109 -174q96 -208 125 -408q-29 -150 -38 -237l-5 -54
l-4 -54q-6 -66 -12 -108q-17 -124 -56 -214q-46 -103 -135 -182l-4 -4l-2 -2q-35 -30 -75 -56l-8 -4q-5 -3 -10 -5q-6 -4 -12 -7q-16 -8 -31 -15q-19 -10 -37 -18q-46 -20 -80 -29q-26 -7 -43 -7q-11 0 -19 3q-14 3 -26 8q-14 5 -19 9q-52 52 -73 226q-8 61 -12 137
q-1 28 -2 59v37l-1 10q0 18 -6 18q-4 0 -11 -7q-14 -14 -30 -46l-6 -13l-1 -1q-7 -14 -17 -27q-13 -16 -27 -27q-37 -30 -84 -30q-139 0 -204 37q-78 45 -97 163q-37 68 -32 139q21 253 212 447q78 80 148 115q29 14 75 20q31 4 82 6q20 0 25 4q6 3 10 18t11 32q9 20 20 37
q28 42 58 44q23 4 47 4q18 0 35 -2q37 -4 60 -17q29 -17 36 -48q11 -59 24 -203q5 -53 10 -119q2 -25 4 -54q1 -20 3 -46q9 -88 12 -203q1 -19 1 -44l1 -20v-20q1 -46 2 -66q0 -5 1 -18v-12l1 -13q2 -36 3 -68v-35q0 -77 -7 -142v-1l-3 -21q-2 -22 -2 -37q0 -20 5 -28
q3 -4 7 -4q14 0 46 53h1l31 77l32 76q34 89 48 156q32 157 32 322q0 34 -1 68v43l-1 18q-1 45 -3 82q-9 112 -38 203q-86 270 -353 376q-46 18 -107 18q-51 0 -113 -13q-150 -33 -291 -132q-368 -258 -473 -805l-3 -15l-3 -16q-4 -19 -6 -35q-8 -42 -13 -80
q-13 -95 -13 -183v-13q1 -259 110 -475q180 -357 527 -366h21q114 0 228 40q103 36 154 82q59 55 94 121l13 27l13 27q16 33 32 56l4 7q3 5 6 8q6 5 13 5q4 0 8 -1q12 -6 13 -30v-12q0 -106 -49 -195q-73 -130 -242 -206q-114 -51 -252 -51q-137 0 -298 50
q-340 106 -507 361q-135 208 -149 504q-2 36 -2 73q0 188 47 392q19 86 44 161q20 59 33 84q201 435 519 590q118 76 240 118q96 33 169 38q19 1 38 1q208 0 410 -142q47 -33 95 -90z" />
    <glyph glyph-name="A" unicode="A" horiz-adv-x="1180" 
d="M455 1001l-12 -95l-7 -72q-5 -41 -12 -72l-3 -22q-2 -17 15 -17q13 0 26 3l94 21q30 7 22 39l-9 32l-27 81l-21 69l-22 70l-10 29l-12 30q-13 -42 -22 -96zM11 2l1 33q-1 20 2 45q4 26 4 52q-3 71 16 208l12 104l12 119l12 118l6 39l6 39l12 122l13 123l8 66l9 67l8 62
l9 62q10 74 11 124l3 24l4 24l15 126q3 28 24 35q29 11 49 43l6 8l6 7q11 11 20 3q10 -7 30 -15l16 -6l14 -8q19 -13 46 -14q66 -1 98 -74q41 -93 90 -269l20 -68l18 -68l10 -29l10 -28l19 -58l19 -59q24 -72 35 -118q10 -37 30 -76l14 -35l12 -35l50 -125l6 -12l3 -12
q2 -30 16 -66l12 -30l14 -31q18 -38 38 -90l33 -91q16 -43 38 -93q13 -30 18 -64q2 -14 0 -30q-5 -38 -44 -44q-17 -3 -26 10l-24 33l-24 33q-29 39 -43 70l-39 80l-38 80q-42 92 -68 164l-26 74l-26 74l-3 10l-4 11q-7 18 -29 15q-81 -11 -130 -5q-34 5 -45 -4t-16 -43
l-62 -390l-10 -48l-23 -98q-18 -90 -53 -142q-9 -14 -14 -39q-6 -32 -41 -58q-35 -25 -68 -23l-48 2q-19 -1 -36 10l-14 11l-14 13q-20 19 -18 55z" />
    <glyph glyph-name="B" unicode="B" horiz-adv-x="1313" 
d="M384 1030l28 26q33 31 56 48l7 6l6 7q17 19 15 34q-2 10 8 21q19 19 22 43q0 8 7 18q20 33 34 79l10 42l9 42q9 39 -4 71l-16 42l-18 40q-31 61 -88 79q-21 7 -37 -1q-16 -7 -35 -20l-32 -24q-11 -9 -7 -21q8 -25 10 -60l1 -30v-31v-65l-1 -65q-1 -99 -8 -202
q-4 -54 3 -106zM709 581l-2 28l-4 27l-4 28q-5 31 -17 52q-18 35 -41 87q-36 81 -100 122q-47 30 -91 17l-28 -12l-27 -14q-36 -18 -32 -59q6 -58 8 -119q2 -66 0 -126l-4 -66l-4 -67l-1 -52l-4 -51l-5 -30l-7 -30l-23 -143q-8 -53 -28 -123q-6 -22 18 -18q10 2 26 10l13 6
l13 5q43 13 85 57l60 56l60 56l23 21q12 13 18 24q14 28 50 77q12 16 20 33q40 88 28 181v23zM7 380v103l2 80v54v54l5 145l6 97l7 98l9 149l1 27v264q0 57 6 103q6 50 53 57l70 10q40 4 71 3h10l9 -1q27 -11 55 15q47 43 139 60q29 6 67 -8q42 -16 70 -39q32 -26 47 -64
l12 -34l12 -35q15 -40 29 -66q17 -30 11 -68l-4 -34q-6 -100 -54 -160l-8 -13q-2 -4 -1 -8q2 -6 9 -4q29 10 72 -1q46 -10 78 -21q27 -9 54 -41q16 -19 32 -43q35 -51 61 -73q8 -7 16 -21q35 -59 55 -126l19 -59q10 -34 12 -60l4 -14q13 -32 24 -79l10 -40l9 -40
q7 -29 3 -57q-12 -72 -30 -115q-7 -18 -9 -33q-3 -29 -13 -63l-21 -62l-3 -5q-2 -2 -5 -2l-4 3l-4 5l-2 5l-2 5q-6 9 -12 1l-14 -17l-11 -17q-10 -18 -29 -41l-16 -19l-15 -19q-16 -19 -32 -18q-28 3 -61 -27q-49 -44 -120 -75q-125 -56 -225 -55l-55 1q-32 1 -56 6
q-18 3 -41 3l-43 -2q-15 -1 -34 -15q-37 -26 -84 -35q-25 -5 -30 20q-4 26 -19 35l-3 3l-1 4q1 26 -29 31q-6 1 -13 8l-10 12q-17 24 -24 51q-16 61 -19 129z" />
    <glyph glyph-name="C" unicode="C" horiz-adv-x="981" 
d="M769 369l-1 -4l-10 -155l-4 -71l-2 -19l-1 -19q3 -42 -16 -86q-7 -17 -11 -34q-14 -66 -70 -140l-38 -55q-15 -23 -33 -31q-27 -12 -49 -35q-18 -19 -51 -21q-61 -3 -133 28q-31 14 -71 38l-35 21l-34 22q-49 30 -80 73q-65 89 -85 173q-33 145 -39 294l-4 144l-2 145
v130l2 131v7l11 126q7 76 14 127q24 176 150 300q27 26 66 57l68 52q14 11 28 16q72 25 131 16q28 -4 45 -25l25 -34l11 -17l11 -16q27 -34 38 -89q11 -51 8 -92q-2 -16 1 -37l5 -36l7 -55l2 -54q2 -33 -9 -52q-3 -5 -8 -5l-5 1l-3 4l-12 37l-5 24l-5 24l-4 17l-6 17l-20 45
l-18 46q-38 89 -91 141q-12 12 -26 2q-37 -29 -56 -68l-10 -20l-9 -21q-10 -24 -12 -44l1 -29l1 -28l-2 -12l-4 -13q-4 -16 -4 -26q0 -26 -8 -67q-7 -36 -2 -84l5 -74l3 -74l6 -147l4 -66l3 -65l7 -105l8 -106l2 -26l1 -26l2 -34l4 -33l10 -68q7 -38 17 -67q17 -47 37 -79
q25 -40 48 -61q31 -30 66 -3q56 41 83 76q24 32 34 81q10 58 29 134l6 31q8 53 21 86q5 11 8 30l4 32l1 6l1 6q2 7 8 9q7 2 13 -3l4 -6l5 -5l5 -7l5 -7q25 -30 17 -73l-2 -7l-2 -11v-2z" />
    <glyph glyph-name="D" unicode="D" horiz-adv-x="1304" 
d="M318 172q-4 -4 -6 -11t0 -10q4 -7 11 -5l7 3l6 3l61 31q36 18 59 34q184 127 306 339q171 299 124 571q-33 187 -253 401l-50 50q-30 29 -52 47q-61 51 -123 70l-8 3l-7 5q-10 4 -17 -2q-6 -6 -4 -16l2 -9l3 -8l20 -79l21 -79q22 -92 28 -160q19 -242 8 -457l-2 -110
l1 -112q0 -138 -18 -235q-3 -138 -117 -264zM812 346q-111 -123 -271 -198q-91 -42 -232 -51h-12l-13 -1q-15 -2 -17 -12q-12 -48 -59 -58l-20 -4l-21 -2q-26 -3 -40 -9q-54 -24 -73 4q-8 10 -12 31l-3 19l-4 19q-15 85 -10 204l6 102l6 102q7 156 5 355l-8 355
q-1 66 -8 160l-12 160q-14 196 -5 321q2 35 21 36q54 2 66 69l2 10l3 10q5 11 18 11q12 0 18 -10l3 -10l2 -11q8 -49 61 -60q34 -8 67 -34q22 -16 55 -53q21 -22 53 -27l78 -14l77 -17q85 -20 149 -50q40 -19 81 -66l33 -40q19 -23 34 -37q234 -221 244 -658v-26v-25
q-1 -28 -8 -45q-27 -198 -254 -450z" />
    <glyph glyph-name="E" unicode="E" horiz-adv-x="1144" 
d="M413 1308q-66 -12 -85 49l-12 44l-15 83l-15 84q-18 99 -47 163q-16 36 28 38l57 1l57 2q65 4 112 19l13 3l13 4q14 6 12 22q-2 15 -17 19l-13 3h-14l-402 15q-27 0 -56 -32q-29 -31 -29 -60l3 -143l3 -143q3 -169 -2 -286q-4 -110 4 -257l7 -128l8 -128q20 -321 -5 -513
q-13 -77 63 -132q75 -54 148 -25q148 60 438 78l42 2l42 1q49 4 83 20l9 5l9 6q8 8 6 19q-3 11 -13 17t-20 4q-36 -6 -82 -3l-83 8q-105 11 -165 -8q-49 -16 -28 34q35 83 28 174l-6 101l-5 101l-4 64l-4 63q-6 74 -27 123q-31 72 -46 168l-10 86l-8 86q-3 40 34 41
q42 0 122 8l61 5l61 3h124q73 1 124 14q28 8 30 22q3 14 -7 21l-10 5l-10 3q-271 69 -501 27z" />
    <glyph glyph-name="F" unicode="F" horiz-adv-x="1284" 
d="M738 1507l-158 -17q-21 -2 -30 2q-15 7 -16 28q-9 187 -72 283q-24 37 20 42l16 3l17 5q21 5 34 3q45 -5 112 -2l56 2l57 2q136 2 222 -41q10 -5 20 -3q12 3 17 14q3 5 3 13q0 9 -2 10l-20 15l-18 17q-22 20 -42 25q-50 12 -129 17l-65 3l-65 5q-40 4 -93 -3l-47 -7
l-46 -8q-115 -17 -189 19q-40 19 -108 23l-58 2l-58 2q-96 8 -67 -93q54 -190 74 -441q7 -95 11 -224l6 -224l10 -394l12 -395q1 -49 12 -118l8 -56l7 -50q-5 -72 17 -102q22 -29 90 -44q88 -19 127 74l7 22l6 23q8 27 22 41q79 78 95 228q13 132 9 377l-2 189q0 106 7 189
q3 44 1 99l-6 99q-9 132 -4 199q4 46 48 45q102 -1 232 11l116 12l116 14l11 1l10 4q11 4 12 16t-9 18l-10 4l-11 3q-182 35 -315 19z" />
    <glyph glyph-name="G" unicode="G" horiz-adv-x="1297" 
d="M792 749q-19 -3 -55 -4l-59 -3q-74 -5 -124 -29l-11 -3l-12 -4q-11 -5 -10 -19q2 -13 16 -17l12 -1l12 -1q54 -8 128 -7l64 2l64 3q57 2 51 -50q-3 -25 -4 -68l-2 -68q-14 -231 -75 -392q-30 -79 -93 -65q-187 41 -247 189q-83 204 -84 510l-1 275q2 154 8 276l7 80
l11 80q14 101 12 162q-1 38 34 70q14 13 34 25l38 21q24 12 43 -7l14 -18l14 -18q36 -37 70 -92q35 -57 70 -146l28 -76l28 -76l7 -13l3 2l1 2q-4 22 10 58l10 28q4 16 2 30q-18 141 -114 326q-42 83 -135 106q-85 21 -170 -14q-116 -49 -196 -126q-92 -87 -116 -190
q-44 -192 -51 -324l-11 -190l-8 -189q-5 -216 17 -381q58 -439 455 -571q156 -51 304 24q138 72 172 229q22 105 13 258l-10 129l-9 129q-3 64 43 67l41 7l41 9l8 2l8 3q7 3 8 12q1 11 -7 15l-8 4l-8 3q-69 34 -281 26z" />
    <glyph glyph-name="H" unicode="H" horiz-adv-x="1398" 
d="M1048 1755q-80 14 -144 -28q-64 -44 -66 -115l-10 -223l-9 -222q-2 -54 -44 -85q-67 -47 -160 -63q-37 -7 -85 -10l-86 -3q-17 0 -21 13l-2 13v13l-2 117q-1 70 -6 116l-20 193l-24 193l-3 27l-3 27q-3 31 -11 50q-20 51 -86 59l-56 6l-56 3q-63 -2 -106 -36
q-42 -33 -39 -79q11 -163 10 -416l-1 -207l1 -208l5 -256l2 -257q-2 -288 -23 -512q-3 -35 19 -52q23 -17 49 2q35 25 98 13q107 -21 141 70q35 91 47 174q25 180 38 408l9 204l8 204q1 50 53 45l74 -9l74 -7q85 -6 148 15q38 13 40 -34l6 -130l7 -129v-189q3 -109 21 -187
l2 -12l2 -14q4 -14 15 -10q12 5 30 7l30 3q37 5 56 28q22 28 56 30q74 4 92 78q29 125 47 308l22 246q10 136 10 245q1 273 -60 490q-22 81 -89 93z" />
    <glyph glyph-name="I" unicode="I" horiz-adv-x="1018" 
d="M663 156l-3 -21l-4 -19q-6 -22 -24 -38q-14 -13 -3 -17l10 -1h11l69 -4l68 -3l11 -2l10 -2q10 -5 10 -18q0 -28 -31 -31l-46 -5l-46 -3q-56 -4 -92 -13q-67 -15 -195 0l-97 11q-54 3 -98 -7q-11 -2 -17 5l-5 8l-4 9q-8 29 22 37q61 14 98 15q50 3 50 53q1 539 -105 1585
q-5 56 -56 51h-42l-41 4q-51 2 -83 -6q-16 -4 -25 8q-5 6 -2 14l8 12q20 30 62 29q101 -4 278 18l139 18q78 8 139 8h34q21 0 34 -4q37 -7 42 -35q3 -23 -31 -35l-30 -9l-30 -7q-9 -4 -28 -5l-28 -4l-11 -3l-8 -6q-9 -9 2 -20q31 -28 38 -74l4 -42l2 -40l26 -191l23 -193
q25 -220 27 -385q7 -355 -32 -642z" />
    <glyph glyph-name="J" unicode="J" horiz-adv-x="1022" 
d="M487 -330q-63 -74 -205 -52q-345 52 -418 360l-3 14l-1 14q1 15 13 22q14 9 28 0l11 -9l8 -11l67 -91l66 -91q86 -113 208 -52q45 23 41 59q-10 88 1 221l10 110l7 110q9 239 8 580l-2 290l-1 290l3 255q1 34 -34 37l-61 3h-62q-74 1 -121 18l-7 2l-6 2q-6 4 -4 13
q1 11 17 12q59 6 139 19l139 23q169 28 279 26l75 -2l74 -2h15l14 -2q15 -3 16 -19q1 -15 -13 -20l-14 -2l-13 -1q-33 -4 -75 -17l-37 -12l-36 -13q-29 -9 -27 -40q38 -530 56 -901q6 -132 -2 -335l-6 -167l-5 -167v-43l1 -43q1 -48 -4 -74q-12 -164 -139 -314z" />
    <glyph glyph-name="K" unicode="K" horiz-adv-x="1346" 
d="M2 1560q1 138 113 179q61 22 94 -35q63 -109 97 -272q11 -53 25 -142l24 -142l1 -11l1 -11q3 -13 10 -20l14 14l12 16q30 43 75 101l76 100q95 123 143 207q10 18 34 32l20 12l21 11q17 9 37 -13q18 -20 2 -45l-49 -76q-31 -47 -48 -78q-17 -29 -38 -73l-36 -76
q-44 -90 -85 -142l-41 -50l-41 -50q-17 -20 2 -30q205 -104 476 -408l47 -50l45 -51q50 -61 70 -116q12 -33 19 -82l6 -43l6 -42q2 -10 -2 -17q-4 -8 -14 -10q-143 -26 -241 74q-123 125 -270 335l-41 59l-41 59q-49 66 -93 110l-4 5l-4 5q-6 6 -12 2q-3 -2 -4 -10
q-1 -7 0 -14q29 -226 23 -600l-3 -40l-6 -39q-7 -49 -55 -57q-57 -9 -61 -70q-3 -46 -44 -23q-40 22 -75 20q-20 -1 -30 14l-7 16l-5 16q-34 115 -41 296q-5 121 -35 339l-23 168q-11 95 -16 170l-9 97l-10 97q-11 117 -9 195v189z" />
    <glyph glyph-name="L" unicode="L" 
d="M414 416v-187l-4 -185q-3 -70 13 -87q15 -18 82 -17l112 -2l112 -4q137 -4 223 4l12 2l12 2q13 0 15 -10q2 -9 -5 -23q-5 -12 -15 -23q-12 -13 -36 -13l-91 -4l-91 -7q-111 -7 -182 0q-85 9 -177 -31q-91 -39 -185 -33l-25 1q-14 -1 -23 -4q-50 -20 -72 6q-15 17 -24 66
q-46 266 -56 629l-5 316l-3 316q-1 78 2 184l7 185q8 227 -5 368q-2 31 19 38q102 37 242 -54q75 -50 99 -140q8 -30 14 -82l4 -41l6 -42q52 -303 47 -663l-1 -47l-1 -19l-1 -14q-17 -155 -19 -385z" />
    <glyph glyph-name="M" unicode="M" horiz-adv-x="1665" 
d="M1459 212l-11 175v9l-1 43l-3 42q-9 75 -7 197l3 158q1 59 11 93q14 46 3 89q-8 29 -3 59q6 36 -2 81l-6 51q-11 93 -37 203q-8 37 -31 74l-13 20l-11 21q-18 36 -57 49l-18 6q-10 4 -16 10q-16 19 -47 16q-62 -7 -145 -3l-26 -2q-20 -4 -22 -23l-2 -19l-1 -19
q2 -30 -19 -55q-43 -52 -79 -165l-13 -36l-53 -150q-29 -85 -45 -151l-36 -137l-6 -23q-4 -12 -13 -20q-10 8 -19 21l-15 23l-63 107q-30 52 -41 80l-59 145q-35 83 -64 142q-46 91 -95 137l-8 7l-5 9q-4 15 -18 36l-11 17l-9 18q-21 52 -78 68q-48 14 -106 12
q-49 -2 -76 -24q-37 -30 -61 -54q-17 -18 -15 -43l5 -68l3 -202l1 -48l4 -48q5 -61 4 -96l2 -62l2 -62l-1 -85l-2 -86v-105l-2 -105q-5 -185 8 -290q3 -23 2 -43q-1 -35 13 -76l17 -53q6 -22 29 -47q25 -28 81 -34q57 -7 90 17q44 30 61 59q45 71 56 120q14 61 19 170l3 94
l2 94l4 73l5 72l5 54l2 53l1 83l-1 84l-5 109q-4 61 -10 108l-3 36l16 -31l13 -31l28 -63q70 -151 141 -254l23 -31l22 -32q15 -24 40 -52l23 -24l23 -24q17 -18 34 -15q44 7 62 28q38 45 61 92l29 62q9 17 14 36l41 153l29 101q3 -68 0 -141l-3 -94v-94q7 -116 3 -201
l1 -26q10 -66 4 -132l-1 -26q5 -53 0 -158q-2 -42 3 -81q7 -48 19 -88q14 -48 5 -136l-8 -101l-6 -100q-5 -67 60 -63q38 3 93 -9l47 -8q72 -12 127 24q46 30 63 67q40 91 46 168q4 47 3 129v64l1 64z" />
    <glyph glyph-name="N" unicode="N" horiz-adv-x="1362" 
d="M795 748q-3 30 -4 72l1 72v57q-5 167 0 377l5 77l7 78l3 94q1 35 6 57q5 16 14 29q13 18 32 13l103 -25q28 -7 51 -25q17 -15 30 -22q43 -23 60 -79l37 -139q5 -19 6 -40l3 -127l3 -90l1 -90q3 -132 -6 -204l-1 -8v-8q1 -8 12 -10l2 -4l2 -7l-1 -20l-16 -155l-2 -6
q-1 -2 -5 0l-9 12l-8 -52l-7 -51q-8 -66 -4 -114q4 -55 -9 -130l-5 -49l-2 -21q-9 -54 -63 -44q-86 16 -129 36q-54 25 -73 80l-11 26l-11 27q-14 31 -17 54l-4 10l-5 9l-125 206q-17 29 -41 76l-79 162l-24 49l-25 50l-17 33l-18 32l-3 2l-4 2q-5 -2 -5 -8l1 -9l14 -108
l14 -107q15 -96 6 -151q-2 -16 1 -41l3 -47l-2 -47q-2 -54 -15 -136l-10 -68l-10 -68q-4 -31 -15 -74l-22 -72l-19 -67q-7 -27 -34 -32l-12 -2q-41 2 -75 -26q-20 -16 -42 6q-10 10 -27 19l-32 17q-25 12 -34 44l-24 87l-24 87l-16 72q-7 40 -7 73q1 35 -2 86l-6 85l-5 117
q-3 67 -11 116l-3 26l-1 27l-14 147l-9 87l-4 88q-4 228 1 385l4 92q3 56 2 92q-1 33 33 45l41 12l41 12l4 1q29 6 65 -6l30 -12l30 -13q35 -14 54 -58l19 -43q11 -26 15 -45q3 -11 12 -21q20 -24 19 -57q-2 -55 40 -114q18 -24 39 -67l69 -142l66 -143l41 -91
q22 -53 36 -94q28 -84 79 -184l19 -40l19 -41l4 -8q4 -4 12 -7q4 101 -3 154z" />
    <glyph glyph-name="O" unicode="O" horiz-adv-x="1183" 
d="M707 344q65 24 103 92l17 34l16 35q11 26 23 66l20 68q25 83 30 151l1 30v29v40l1 39q1 46 -9 78l-1 8l-1 8q-8 69 -32 106q-4 8 -9 22q-5 16 -20 45l-12 23l-12 23q-13 28 -18 49l-4 9l-6 9l-61 85q-17 22 -45 23q-35 1 -56 -6l-14 -4l-15 -2q-47 -2 -91 -47
q-28 -29 -64 -82q-54 -78 -67 -131l-10 -39l-9 -41l-4 -20l-5 -21l-4 -13l-3 -13l-5 -45l-4 -46q-4 -93 5 -181q10 -105 37 -172q37 -97 89 -140l5 -4l4 -5q72 -72 182 -69q32 3 48 9zM1008 1052l6 -37l6 -45l3 -46l7 -92q1 -22 -1 -40l-5 -58l-5 -59l-3 -46l-4 -46l-2 -16
l-3 -16q-20 -97 -56 -193q-21 -53 -55 -101q-30 -42 -87 -79q-35 -22 -50 -37t-36 -24l-42 -16l-44 -16q-60 -19 -129 -2q-94 24 -157 58l-15 8l-50 38l-49 38q-25 21 -57 55q-35 37 -58 79q-47 89 -72 166l-23 72q-12 41 -18 73l-3 15l-2 14l-3 102l-1 102q2 82 19 167
l25 122q4 15 12 38l13 37q20 58 83 156q51 81 130 123q30 17 64 25l45 10q26 7 44 14q19 9 45 4q27 -5 62 0q80 10 149 -12q24 -8 40 -16q67 -39 99 -75q68 -76 100 -142l3 -6l2 -6q10 -45 39 -108q9 -19 15 -50l5 -26l4 -26l4 -21l3 -21q-1 -16 3 -38z" />
    <glyph glyph-name="P" unicode="P" horiz-adv-x="1065" 
d="M754 1236q-13 -36 -40 -63q-45 -45 -86 -90q-69 -76 -170 -129l-11 -6q-17 -8 -19 12l-2 16q7 63 -12 150l-3 20l-1 20l-5 49q-3 28 -11 49l-2 16q-7 81 -57 223l-28 79q-18 43 -36 76q-31 52 9 98q61 69 108 84q23 8 67 12q81 13 162 -51q92 -70 142 -184q8 -18 16 -47
l12 -49q15 -48 5 -134q-7 -60 -38 -151zM928 1393q-1 29 -10 59q-10 37 -17 74q-19 101 -75 188q-63 96 -152 143q-22 12 -52 21l-53 16q-83 24 -162 14q-104 -15 -178 -82l-26 -25q-20 -23 -43 -6q-32 23 -79 3l-13 -4l-13 -5q-21 -8 -36 -25q-19 -21 -12 -43l5 -22l4 -21
q32 -136 28 -257l1 -24l3 -24l2 -12l2 -12l4 -151l2 -76l25 -310q2 -35 1 -60q-4 -51 -3 -122l3 -121l2 -180l1 -133q2 -75 8 -134l9 -119l1 -14l2 -14q9 -40 48 -36q21 3 54 15l49 22q30 13 51 18q13 4 26 14l22 21l10 12l10 13q69 79 72 177q2 76 17 143q11 50 3 118
q-5 41 0 72q7 54 2 104l-3 23v24q4 55 -6 152l-3 31q-1 25 25 29l20 3q41 2 83 25q39 21 61 30q64 24 124 84l88 93q48 51 55 95l3 10l5 9q9 17 8 42z" />
    <glyph glyph-name="Q" unicode="Q" horiz-adv-x="1457" 
d="M431 1270q-47 -141 -50 -249l-4 -151l1 -22l2 -21q10 -53 11 -104q0 -27 8 -49l27 -85q33 -107 116 -213l10 -11q80 -70 157 -99l94 -36q14 -5 26 -5q5 1 9 5q3 4 1 9l-14 32q-71 144 -106 244q-36 100 -79 198l-10 26l-9 25q-61 153 -112 297l-32 90q-18 51 -28 90
l-4 17q-3 10 -10 17zM1005 975l-11 59l-11 59q-10 50 -23 78q-14 28 -22 57q-16 56 -59 143q-39 81 -138 220q-21 29 -48 44q-37 21 -49 -16q-17 -54 -70 -91q-20 -14 -38 -38q-10 -14 -5 -25q8 -19 18 -55l8 -28l9 -28q26 -68 39 -129q11 -46 34 -123l18 -61l20 -61
q22 -72 32 -124q5 -19 10 -29q21 -36 41 -104l14 -37q60 -146 94 -237l18 -45l21 -44q13 -25 31 -2q9 11 15 27l7 30l16 67q3 13 14 18q13 6 4 18q-5 6 -4 15l4 15q27 125 25 252q3 64 -14 175zM18 1086q16 101 52 199l23 61l23 62q44 108 122 201q10 13 27 26l30 21l35 24
q21 14 34 26q18 17 50 18l56 2q33 1 56 -2q61 -8 119 0q61 8 122 -38q77 -59 129 -148q82 -138 114 -212l30 -72l29 -73q31 -81 45 -150q17 -85 23 -177l6 -71q3 -42 3 -72v-4q7 -19 5 -45l-2 -23l-4 -23l-14 -113q-9 -66 -21 -113q-5 -19 11 -25q13 -5 5 -19l-13 -19
q-22 -28 -22 -52q0 -25 -25 -42l-13 -8q-32 -20 -33 -26q-1 -4 14 -36l31 -58l33 -57q8 -15 21 -23q19 -12 40 -46l44 -71l45 -70l5 -6l3 -7l1 -5l-1 -5l-4 -3l-6 -1l-18 7q-80 36 -172 118q-93 83 -138 162q-10 18 -22 0l-2 -3q-15 -36 -62 -48l-4 -1l-80 -14
q-47 -8 -80 -10l-33 -1h-33q-129 -2 -230 78l-74 57q-90 71 -135 157l-54 95q-43 76 -74 190l-18 68q-11 41 -14 89q-3 35 -2 75q1 156 17 256z" />
    <glyph glyph-name="R" unicode="R" horiz-adv-x="1247" 
d="M382 1071l1 -36q1 -16 6 -31q5 -18 22 -11l33 14l32 16q36 18 59 41q31 29 35 65q9 84 -7 148q-27 102 -118 161q-26 16 -49 6l-11 -4l-12 -4q-14 -5 -13 -21l16 -224l7 -120h-1zM382 472q1 -27 -5 -64q-5 -30 -4 -67l-2 -71l-4 -69l-2 -293q0 -48 -14 -78l-8 -18l-7 -19
q-8 -23 -17 -36l-8 -12l-8 -11q-21 -24 -51 -11l-56 26l-56 26q-56 25 -64 95l-7 79l-7 72l-4 72l-3 62l-7 62l-22 195q-6 49 -10 122l-8 121q-8 118 -7 275l2 137l2 137l3 173l3 172q1 52 29 86q24 29 58 29q43 -1 64 -5l47 -9l47 -10q28 -6 42 -34q20 -41 40 -60l6 -8
l4 -9q13 -26 42 -20l8 1l8 2q48 17 102 -17q52 -32 116 -125q47 -67 58 -135q15 -92 -28 -174q-9 -18 -30 -42l-16 -20l-15 -21q-10 -14 -35 -26l-26 -11q-24 -12 -12 -35l24 -50l26 -50l34 -55l34 -54l8 -12l7 -11q34 -63 92 -154l47 -75l48 -75l16 -23q25 -32 54 -77
l51 -79l62 -98q19 -30 32 -65q15 -41 4 -66q-4 -11 -1 -23q4 -16 -1 -34l-5 -16l-6 -16q-3 -9 -14 -13q-27 -11 -34 -9q-8 2 -25 25l-18 27q-12 23 -33 39q-23 18 -42 48l-46 70l-15 19q-28 30 -66 81l-31 42l-31 41q-71 89 -109 149l-44 67l-45 66q-37 54 -65 115l-14 29
l-17 29q-20 -132 -15 -226z" />
    <glyph glyph-name="S" unicode="S" horiz-adv-x="1160" 
d="M803 660q4 -7 10 -17l10 -20q14 -27 23 -45q30 -57 51 -103q60 -137 63 -233v-8q0 -243 -360 -243q-44 0 -93 4l-11 1q-178 14 -280 110q-71 65 -130 207q-22 51 -40 119l-13 60l-13 62l-2 7l-2 8v6q0 6 1 11q5 21 38 25h5q24 0 35 -18q4 -7 7 -18l4 -9l3 -7
q14 -38 39 -108l18 -53l19 -55q61 -153 165 -224q33 -21 68 -36q40 -15 73 -15h4q137 4 137 123v14q-11 174 -275 606q-21 32 -67 120q-52 96 -104 197q-138 274 -167 376q-19 70 -19 127q0 145 121 217q98 57 244 57q44 0 92 -5q80 -9 135 -62q115 -109 140 -304l1 -5v-6
q1 -3 1 -6t-1 -6q-6 -15 -26 -15h-2q-12 0 -19 10q-2 3 -3 10l-2 5l-1 4q-6 17 -13 43l-11 44q-15 51 -34 84q-20 34 -53 74q-68 67 -173 74q-12 1 -24 1q-24 0 -47 -4l-24 -4l-8 -2l-3 -1h-2q-44 -15 -64 -51q-9 -17 -9 -35q0 -16 9 -32l27 -41l27 -41q31 -48 50 -81
q24 -46 64 -124l32 -62l32 -62l131 -242l131 -243l43 -80q26 -47 42 -80z" />
    <glyph glyph-name="T" unicode="T" horiz-adv-x="1074" 
d="M901 1905l-51 6l-219 11l-81 3l-82 -1q-156 -11 -320 -56q-56 -16 -122 -24l-24 -4l-23 -4q-82 -22 -196 -43l-28 -5l-28 -4q-27 -5 -21 -16q3 -6 10 -8l12 -2q85 -7 129 -1q46 6 98 8l52 1h53q62 2 105 9l12 1q13 -1 15 -13l2 -17q-1 -113 9 -214l2 -45l-1 -45l2 -88
l3 -88l4 -92l1 -92l1 -112l-1 -111l-5 -270l-4 -65l-3 -64l1 -165l1 -165q0 -126 15 -197l5 -40l6 -40l6 -23l7 -22q9 -29 38 -30q16 -1 37 -7q26 -7 55 2l41 15q24 10 45 13q45 7 61 49q15 41 50 89q26 37 35 96l11 85l13 110q4 29 3 67l-2 66q-2 79 -9 141l-6 58l-4 58
q-1 131 -24 269q-5 33 -7 85l-4 86l-2 55l-2 56l-7 109l-4 109q0 24 -6 38q-23 50 -14 104l1 19l-1 20q-3 30 1 51q6 25 -2 68l-6 40l-4 41q-2 17 17 19l13 1q88 6 165 26q83 21 131 18l41 2l40 6q27 4 27 29q0 16 -22 23z" />
    <glyph glyph-name="U" unicode="U" horiz-adv-x="1389" 
d="M768 447q-16 -34 -38 -60q-18 -20 -37 -49l-32 -52q-30 -50 -93 -122l-25 -25l-25 -25q-45 -46 -80 -63l-13 -9l-13 -9q-17 -11 -24 -26l-6 -12l-8 -11q-22 -38 -68 -27q-19 5 -48 17q-54 22 -126 65q-54 33 -67 102q-8 39 -10 87q-3 84 -9 141q-4 35 -5 91l-2 90l-7 107
l-5 106l-8 104q-4 64 -4 104l-2 69l-5 69q-8 127 -8 319v202q1 35 33 25l14 -4l13 -2q16 1 39 -3l39 -6q48 -6 71 -30q7 -7 22 -9l12 -2l9 -5l8 -7l7 -8q8 -9 17 -12q76 -23 85 -114l8 -75l7 -74l4 -67l6 -66l3 -52l1 -51l1 -39l3 -40l2 -35l2 -193l1 -42l3 -41l1 -27v-28
l7 -124q4 -75 3 -124q-1 -43 42 -76q14 -11 29 2q13 11 26 35l102 191l69 129q17 32 37 76l34 78l17 40l17 40q21 50 22 95l3 87l3 86q-1 74 7 173q3 39 17 97q8 31 47 62q53 43 127 71q50 19 97 -15l6 -5l6 -5q45 -23 40 -76l-3 -72v-73l-1 -16v-15q5 -34 6 -81l1 -81
l3 -79l5 -102l3 -31l1 -10l1 -10l-1 -49l2 -49q3 -65 0 -99q-5 -62 -6 -175l-1 -88l-4 -87l-6 -87q-4 -48 -13 -85l-2 -20q1 -35 -24 -69q-15 -20 -32 -63q-24 -59 -92 -72q-36 -7 -94 -6q-37 1 -36 33q2 40 -27 79q-7 10 -9 22l-11 56q-7 33 -8 56l-4 101l-5 100l-5 31
l-3 16l-4 15q-5 20 -3 37q-17 -15 -29 -40z" />
    <glyph glyph-name="V" unicode="V" horiz-adv-x="1257" 
d="M660 344l3 10l25 89l23 90l15 68l14 69l36 171q22 96 43 170q23 80 60 234l24 106l23 106l13 54l13 53q17 59 38 104l9 28l9 29q11 35 37 8q12 -13 9 -29l-7 -38l-17 -121l-15 -122q-5 -44 -21 -102q-17 -57 -32 -155l-18 -109q-10 -63 -20 -108l-16 -77l-14 -78
q-5 -29 -17 -73l-20 -72q-22 -85 -47 -169l-25 -80l-26 -80l-23 -70l-22 -70l-16 -47l-18 -45q-12 -29 -39 -39q-12 -4 -21 -17q-17 -26 -50 -26q-30 1 -49 -4l-5 -2h-5q-64 10 -97 24q-24 9 -35 38q-14 34 -20 56q-10 36 -34 95l-13 37l-13 36q-21 59 -50 151l-48 152
q-13 39 -27 98l-22 99l-3 14q-16 46 -31 117l-11 59l-13 59l-14 67l-13 67q-16 82 -30 133q-9 31 -15 74l-10 74l-5 39q-7 45 38 56l20 4l21 3l16 1l15 2q63 16 125 -40l9 -10q12 -15 29 -18q44 -9 67 -57l10 -22q49 -131 66 -228v-4q9 -28 18 -80l7 -40l9 -41
q13 -52 30 -107l32 -102l29 -103l5 -15l5 -15l48 -146q17 -55 26 -116l7 -36l10 -36l2 -2l3 -2q4 3 6 9z" />
    <glyph glyph-name="W" unicode="W" horiz-adv-x="1768" 
d="M685 405l2 6l1 5q21 73 38 195q11 82 41 182q29 103 46 173q7 33 52 69q12 10 26 -1q11 -10 25 -5q21 7 46 -3l9 -3l10 -1l64 -13q108 -25 146 -138q59 -170 85 -319q11 -63 35 -111l15 -34l15 -34l2 -2l4 -2q6 -1 8 7l15 80q9 46 11 81l5 62l6 62l8 75l9 75l12 79l10 79
l2 20l1 19q-3 22 -1 55l2 54q1 75 36 166q12 31 51 44q28 9 30 -22l3 -81q0 -65 5 -113q8 -72 -3 -136q-6 -30 -7 -85q-3 -77 -20 -181l-11 -66l-9 -65q-20 -158 -73 -366q-9 -40 0 -61q8 -17 -7 -32q-17 -16 -15 -46l1 -20q-2 -25 -23 -33l-7 -3l-7 -3q-44 -34 -107 -16
l-21 3l-21 1q-34 1 -82 22q-12 5 -24 20q-59 75 -87 155l-37 98l-38 98q-25 63 -52 159q-10 39 -29 72l-7 16l-8 16l-3 8l-3 8q-4 9 -10 14q-7 -4 -8 -11l-1 -7v-6q-11 -97 -41 -226q-8 -36 -16 -90l-15 -90l-10 -64l-11 -63q-8 -39 -14 -88q-5 -44 -15 -92q-11 -52 -64 -44
l-12 2l-11 2q-24 0 -39 14q-14 13 -43 18q-42 8 -61 23q-5 5 -13 7l-16 3q-32 4 -46 37q-67 152 -91 256q-20 87 -40 147q-14 40 -30 99l-26 99q-24 91 -40 139q-21 63 -35 147q-9 63 -27 142l-33 140l-17 72l-14 72l-10 46l-12 45l-6 16l-8 16l-7 14l-6 14q-12 42 22 64
q24 16 57 42t95 43q54 14 106 -15q51 -29 64 -79q15 -55 54 -102q26 -32 39 -80l24 -80l24 -80l9 -30l35 -138l33 -138l32 -146l31 -147l20 -97q11 -56 17 -101q8 5 11 12z" />
    <glyph glyph-name="X" unicode="X" horiz-adv-x="1208" 
d="M971 194l-15 32l-16 32q-19 34 -30 64q-10 28 -33 70l-26 47q-15 28 -22 49q-17 47 -47 116l-50 115q-26 61 -84 174q-22 42 -10 80l2 12l4 12l25 71l25 70q31 80 62 137l50 90l50 91l34 56l34 56l31 58q6 12 8 23q4 21 -9 33t-33 6q-60 -19 -85 -60l-19 -29l-20 -29
l-39 -58q-23 -35 -37 -60l-77 -150l-76 -151l-10 -19l-7 -11l-7 -13l-14 23l-13 21q-14 23 -21 40l-34 75l-36 74l-9 21l-10 20q-17 29 -44 62l-49 58q-14 17 -41 27q-16 6 -61 3q-44 -2 -60 -9l-7 -5q-36 -19 -76 -49q-44 -33 -38 -81q3 -21 -10 -34q-21 -20 -13 -57
q18 -81 68 -134q17 -18 25 -33l17 -33l18 -32q26 -37 50 -90l37 -85l37 -85q43 -91 71 -180q10 -35 2 -65l-31 -109q-18 -64 -34 -108q-31 -88 -67 -242q-30 -127 -63 -204l-7 -19q-3 -16 17 -27q14 -8 22 3l21 28q12 16 18 30l33 77l31 79l60 157l12 31l11 31l51 121
q4 9 11 9q7 1 12 -7l19 -31l19 -32q10 -14 20 -41l8 -21l10 -20q29 -58 47 -105q25 -68 79 -130q35 -40 89 -42l83 1l43 3l42 6q47 10 78 37l11 6l12 4q11 5 20 20q19 34 -3 66q-17 23 -36 63z" />
    <glyph glyph-name="Y" unicode="Y" 
d="M893 1887q-18 22 -46 41l-26 17l-26 16q-32 19 -55 -13q-22 -30 -35 -68q-17 -53 -50 -128l-33 -74l-32 -74q-23 -51 -51 -128l-46 -128l-33 -93l-31 -93l-21 -47q-2 -6 -8 -6t-9 6l-27 48q-67 118 -104 196l-53 108l-53 107l-50 109q-27 62 -44 111q-15 41 -56 115
q-22 40 -74 44q-30 2 -24 -26q4 -21 16 -54l39 -106q23 -64 37 -107q32 -106 89 -240q96 -225 202 -386l16 -28l16 -28q21 -34 9 -70q-5 -14 -8 -33q-12 -83 -40 -190l-25 -94l-26 -94q-70 -257 -96 -390l-15 -74l-15 -74q-16 -86 -20 -151l-1 -8q-9 -52 17 -96
q12 -22 34 -31q42 -17 99 -27q23 -4 42 1q82 22 112 85l8 15l9 14q59 101 78 185q18 79 33 124l16 48l16 49q18 54 38 136l16 69l17 68q29 117 60 209l30 92l28 92l27 105l25 106l19 84l19 83l16 60l14 60q14 69 34 124q15 44 18 74l17 175l7 61l-5 30l-5 27q-4 34 -30 65z
" />
    <glyph glyph-name="Z" unicode="Z" horiz-adv-x="1259" 
d="M967 973l-33 -3l-32 -7q-22 -6 -38 -3q-15 3 -9 16l17 31q37 58 62 119l18 42q11 23 23 40q8 11 16 32l5 18l7 16l2 11v12q-3 28 -17 51q-15 23 -25 47t-34 35q-80 37 -151 45l-59 5l-59 3h-54l-54 -1l-78 1q-44 0 -79 -4q-38 -5 -76 -2q-58 6 -103 -7q-41 -11 -68 -11
l-38 -4l-38 -5l-15 -4l-14 -6q-22 -11 0 -24l14 -6l42 -13q25 -8 41 -17q6 -3 16 -4l17 1q30 1 58 -5q43 -9 114 -10l41 -1l40 -3q39 -6 88 -1l28 3l29 1q48 -3 34 -49l-11 -30l-10 -32q-6 -29 -21 -63l-15 -30l-16 -30q-13 -25 -37 -60l-41 -59q-11 -16 -28 -15h-29l-29 3
q-77 12 -188 -24l-18 -8q-8 -4 -6 -13q2 -5 8 -7l17 -3l17 -3l103 -8q17 -1 40 -7l39 -9q12 -3 7 -15l-11 -21l-59 -90l-60 -89l-20 -30l-21 -31q-22 -35 -34 -64l-44 -108q-26 -62 -50 -106q-25 -48 -47 -116l-18 -59l-18 -60q-5 -17 -5 -42q0 -33 29 -46l17 -8l17 -9
q54 -31 115 -14q22 6 57 3q132 -11 272 3l21 2l21 1q29 -2 66 1l65 5l23 2l23 1l53 1l54 5q62 7 96 3h15h16q11 0 15 9q4 8 14 11l15 5l10 5q4 4 4 11q0 5 -5 8l-8 4l-16 6l-16 6q-33 17 -86 17l-35 -1l-117 2q-68 0 -117 -5q-20 -3 -34 -1h-39l-38 -2l-19 -2h-19
q-42 2 -100 -9q-23 -4 -56 3l21 35l19 31l48 79q28 46 50 77q24 33 58 88l28 45l28 44q65 99 93 155l16 26q10 16 14 27q3 10 12 20q12 13 27 37l36 63q17 31 51 37l60 12q36 7 61 7q26 1 58 14l27 12l27 12q12 4 12 18q0 11 -14 17q-44 19 -78 17z" />
    <glyph glyph-name="bracketleft" unicode="[" horiz-adv-x="1108" 
d="M27 1485q5 88 23 115q16 24 80 46q128 43 308 49l154 1l154 -1q28 1 66 -7l65 -16l10 -1l10 -2q11 -4 11 -17t-11 -18l-10 -2l-10 -2q-181 -39 -332 -36q-52 0 -118 -5l-117 -14q-24 -3 -24 -37l1 -227q0 -134 3 -227q3 -108 0 -243l-8 -243l-8 -187l-6 -187
q-4 -211 5 -375q7 -126 8 -295q1 -39 24 -34q196 42 433 -36q35 -12 37 -41q1 -17 -11 -20l-11 -1l-10 -2q-88 -46 -201 -28q-40 7 -96 3l-48 -5l-47 -4q-33 -2 -84 2l-41 3l-41 2q-113 3 -150 134q-22 76 -23 201l-4 254l-4 251q-4 295 8 491q-4 436 15 761z" />
    <glyph glyph-name="backslash" unicode="\" horiz-adv-x="986" 
d="M520 654l-27 103l-28 105q-33 125 -58 215q-12 42 -27 100l-13 53l-13 54q-35 140 -63 227q-41 123 -132 194q-43 33 -89 44q-46 10 -52 -14q-18 -70 4 -141l40 -135l38 -135q49 -172 81 -270q31 -97 69 -223l64 -221q81 -280 140 -445l36 -101l39 -100q60 -141 193 -163
l11 -3l12 -3q14 -3 21 -3q20 1 9 37l-138 420q-53 160 -117 405z" />
    <glyph glyph-name="bracketright" unicode="]" horiz-adv-x="853" 
d="M481 1609l37 -5l36 -6q39 -10 68 -35q26 -22 24 -54q-7 -108 -6 -265l1 -133l1 -133q-2 -409 -32 -881q-19 -296 -16 -463l3 -42l4 -41v-8q0 -5 1 -5q47 -24 1 -47q-2 -1 7 -4q7 -3 14 -4l15 -2l14 -1q0 -13 -8 -16l-7 -2l-7 -4l-5 -5l-2 -5q2 -46 -32 -55
q-133 -36 -209 -30l-107 6l-106 3q-128 6 -213 25l-23 5l-24 6q-27 7 -45 21l-5 4l-5 5q-5 6 -5 10q0 11 6 14l6 1h6q188 48 354 47l116 -2q19 0 19 36q1 588 55 1668l11 247q4 68 -42 73l-85 9l-85 7q-95 7 -170 2q-45 -3 -78 23l-6 4l-5 5q-5 6 -4 15q0 10 7 13l5 2l6 1
q49 11 118 16l57 4l54 4q125 -6 286 -28z" />
    <glyph glyph-name="asciicircum" unicode="^" horiz-adv-x="647" 
d="M231 1408q-31 42 -51 9q-34 -53 -79 -163l-36 -85q-20 -47 -40 -81l-13 -25l-12 -25q30 -42 55 -16q41 42 69 145l6 22l6 21q8 23 24 25q15 1 32 -22l15 -22l14 -20l50 -63l48 -63q30 -37 59 -12q17 15 34 49l13 27q8 16 15 26q7 9 0 23q-5 9 -18 22q-89 85 -191 228z
" />
    <glyph glyph-name="underscore" unicode="_" horiz-adv-x="2006" 
d="M1633 -19q-139 43 -233 41q-425 -8 -925 -34q-250 -14 -419 -56l-20 -5l-18 -5q-18 -6 -6 -16q99 -78 247 -74q110 4 208 -5q148 -8 390 -2l193 4q110 2 191 1l113 -1h112q126 3 228 16q112 15 94 57q-16 36 -155 79z" />
    <glyph glyph-name="grave" unicode="`" horiz-adv-x="534" 
d="M21 1508q-21 39 41 96q8 7 16 4l7 -3l6 -4q58 -31 97 -96q80 -129 134 -243q12 -26 -13 -80q-24 -54 -56 -72q-37 -20 -63 5q-23 24 -40 58l-12 31l-11 31q-8 23 -22 53l-26 52q-32 65 -40 109q-3 30 -18 59z" />
    <glyph glyph-name="a" unicode="a" horiz-adv-x="1180" 
d="M455 1001l-12 -95l-7 -72q-5 -41 -12 -72l-3 -22q-2 -17 15 -17q13 0 26 3l94 21q30 7 22 39l-9 32l-27 81l-21 69l-22 70l-10 29l-12 30q-13 -42 -22 -96zM11 2l1 33q-1 20 2 45q4 26 4 52q-3 71 16 208l12 104l12 119l12 118l6 39l6 39l12 122l13 123l8 66l9 67l8 62
l9 62q10 74 11 124l3 24l4 24l15 126q3 28 24 35q29 11 49 43l6 8l6 7q11 11 20 3q10 -7 30 -15l16 -6l14 -8q19 -13 46 -14q66 -1 98 -74q41 -93 90 -269l20 -68l18 -68l10 -29l10 -28l19 -58l19 -59q24 -72 35 -118q10 -37 30 -76l14 -35l12 -35l50 -125l6 -12l3 -12
q2 -30 16 -66l12 -30l14 -31q18 -38 38 -90l33 -91q16 -43 38 -93q13 -30 18 -64q2 -14 0 -30q-5 -38 -44 -44q-17 -3 -26 10l-24 33l-24 33q-29 39 -43 70l-39 80l-38 80q-42 92 -68 164l-26 74l-26 74l-3 10l-4 11q-7 18 -29 15q-81 -11 -130 -5q-34 5 -45 -4t-16 -43
l-62 -390l-10 -48l-23 -98q-18 -90 -53 -142q-9 -14 -14 -39q-6 -32 -41 -58q-35 -25 -68 -23l-48 2q-19 -1 -36 10l-14 11l-14 13q-20 19 -18 55z" />
    <glyph glyph-name="b" unicode="b" horiz-adv-x="1313" 
d="M384 1030l28 26q33 31 56 48l7 6l6 7q17 19 15 34q-2 10 8 21q19 19 22 43q0 8 7 18q20 33 34 79l10 42l9 42q9 39 -4 71l-16 42l-18 40q-31 61 -88 79q-21 7 -37 -1q-16 -7 -35 -20l-32 -24q-11 -9 -7 -21q8 -25 10 -60l1 -30v-31v-65l-1 -65q-1 -99 -8 -202
q-4 -54 3 -106zM709 581l-2 28l-4 27l-4 28q-5 31 -17 52q-18 35 -41 87q-36 81 -100 122q-47 30 -91 17l-28 -12l-27 -14q-36 -18 -32 -59q6 -58 8 -119q2 -66 0 -126l-4 -66l-4 -67l-1 -52l-4 -51l-5 -30l-7 -30l-23 -143q-8 -53 -28 -123q-6 -22 18 -18q10 2 26 10l13 6
l13 5q43 13 85 57l60 56l60 56l23 21q12 13 18 24q14 28 50 77q12 16 20 33q40 88 28 181v23zM7 380v103l2 80v54v54l5 145l6 97l7 98l9 149l1 27v264q0 57 6 103q6 50 53 57l70 10q40 4 71 3h10l9 -1q27 -11 55 15q47 43 139 60q29 6 67 -8q42 -16 70 -39q32 -26 47 -64
l12 -34l12 -35q15 -40 29 -66q17 -30 11 -68l-4 -34q-6 -100 -54 -160l-8 -13q-2 -4 -1 -8q2 -6 9 -4q29 10 72 -1q46 -10 78 -21q27 -9 54 -41q16 -19 32 -43q35 -51 61 -73q8 -7 16 -21q35 -59 55 -126l19 -59q10 -34 12 -60l4 -14q13 -32 24 -79l10 -40l9 -40
q7 -29 3 -57q-12 -72 -30 -115q-7 -18 -9 -33q-3 -29 -13 -63l-21 -62l-3 -5q-2 -2 -5 -2l-4 3l-4 5l-2 5l-2 5q-6 9 -12 1l-14 -17l-11 -17q-10 -18 -29 -41l-16 -19l-15 -19q-16 -19 -32 -18q-28 3 -61 -27q-49 -44 -120 -75q-125 -56 -225 -55l-55 1q-32 1 -56 6
q-18 3 -41 3l-43 -2q-15 -1 -34 -15q-37 -26 -84 -35q-25 -5 -30 20q-4 26 -19 35l-3 3l-1 4q1 26 -29 31q-6 1 -13 8l-10 12q-17 24 -24 51q-16 61 -19 129z" />
    <glyph glyph-name="c" unicode="c" horiz-adv-x="981" 
d="M769 369l-1 -4l-10 -155l-4 -71l-2 -19l-1 -19q3 -42 -16 -86q-7 -17 -11 -34q-14 -66 -70 -140l-38 -55q-15 -23 -33 -31q-27 -12 -49 -35q-18 -19 -51 -21q-61 -3 -133 28q-31 14 -71 38l-35 21l-34 22q-49 30 -80 73q-65 89 -85 173q-33 145 -39 294l-4 144l-2 145
v130l2 131v7l11 126q7 76 14 127q24 176 150 300q27 26 66 57l68 52q14 11 28 16q72 25 131 16q28 -4 45 -25l25 -34l11 -17l11 -16q27 -34 38 -89q11 -51 8 -92q-2 -16 1 -37l5 -36l7 -55l2 -54q2 -33 -9 -52q-3 -5 -8 -5l-5 1l-3 4l-12 37l-5 24l-5 24l-4 17l-6 17l-20 45
l-18 46q-38 89 -91 141q-12 12 -26 2q-37 -29 -56 -68l-10 -20l-9 -21q-10 -24 -12 -44l1 -29l1 -28l-2 -12l-4 -13q-4 -16 -4 -26q0 -26 -8 -67q-7 -36 -2 -84l5 -74l3 -74l6 -147l4 -66l3 -65l7 -105l8 -106l2 -26l1 -26l2 -34l4 -33l10 -68q7 -38 17 -67q17 -47 37 -79
q25 -40 48 -61q31 -30 66 -3q56 41 83 76q24 32 34 81q10 58 29 134l6 31q8 53 21 86q5 11 8 30l4 32l1 6l1 6q2 7 8 9q7 2 13 -3l4 -6l5 -5l5 -7l5 -7q25 -30 17 -73l-2 -7l-2 -11v-2z" />
    <glyph glyph-name="d" unicode="d" horiz-adv-x="1304" 
d="M318 172q-4 -4 -6 -11t0 -10q4 -7 11 -5l7 3l6 3l61 31q36 18 59 34q184 127 306 339q171 299 124 571q-33 187 -253 401l-50 50q-30 29 -52 47q-61 51 -123 70l-8 3l-7 5q-10 4 -17 -2q-6 -6 -4 -16l2 -9l3 -8l20 -79l21 -79q22 -92 28 -160q19 -242 8 -457l-2 -110
l1 -112q0 -138 -18 -235q-3 -138 -117 -264zM812 346q-111 -123 -271 -198q-91 -42 -232 -51h-12l-13 -1q-15 -2 -17 -12q-12 -48 -59 -58l-20 -4l-21 -2q-26 -3 -40 -9q-54 -24 -73 4q-8 10 -12 31l-3 19l-4 19q-15 85 -10 204l6 102l6 102q7 156 5 355l-8 355
q-1 66 -8 160l-12 160q-14 196 -5 321q2 35 21 36q54 2 66 69l2 10l3 10q5 11 18 11q12 0 18 -10l3 -10l2 -11q8 -49 61 -60q34 -8 67 -34q22 -16 55 -53q21 -22 53 -27l78 -14l77 -17q85 -20 149 -50q40 -19 81 -66l33 -40q19 -23 34 -37q234 -221 244 -658v-26v-25
q-1 -28 -8 -45q-27 -198 -254 -450z" />
    <glyph glyph-name="e" unicode="e" horiz-adv-x="1144" 
d="M413 1308q-66 -12 -85 49l-12 44l-15 83l-15 84q-18 99 -47 163q-16 36 28 38l57 1l57 2q65 4 112 19l13 3l13 4q14 6 12 22q-2 15 -17 19l-13 3h-14l-402 15q-27 0 -56 -32q-29 -31 -29 -60l3 -143l3 -143q3 -169 -2 -286q-4 -110 4 -257l7 -128l8 -128q20 -321 -5 -513
q-13 -77 63 -132q75 -54 148 -25q148 60 438 78l42 2l42 1q49 4 83 20l9 5l9 6q8 8 6 19q-3 11 -13 17t-20 4q-36 -6 -82 -3l-83 8q-105 11 -165 -8q-49 -16 -28 34q35 83 28 174l-6 101l-5 101l-4 64l-4 63q-6 74 -27 123q-31 72 -46 168l-10 86l-8 86q-3 40 34 41
q42 0 122 8l61 5l61 3h124q73 1 124 14q28 8 30 22q3 14 -7 21l-10 5l-10 3q-271 69 -501 27z" />
    <glyph glyph-name="f" unicode="f" horiz-adv-x="1284" 
d="M738 1507l-158 -17q-21 -2 -30 2q-15 7 -16 28q-9 187 -72 283q-24 37 20 42l16 3l17 5q21 5 34 3q45 -5 112 -2l56 2l57 2q136 2 222 -41q10 -5 20 -3q12 3 17 14q3 5 3 13q0 9 -2 10l-20 15l-18 17q-22 20 -42 25q-50 12 -129 17l-65 3l-65 5q-40 4 -93 -3l-47 -7
l-46 -8q-115 -17 -189 19q-40 19 -108 23l-58 2l-58 2q-96 8 -67 -93q54 -190 74 -441q7 -95 11 -224l6 -224l10 -394l12 -395q1 -49 12 -118l8 -56l7 -50q-5 -72 17 -102q22 -29 90 -44q88 -19 127 74l7 22l6 23q8 27 22 41q79 78 95 228q13 132 9 377l-2 189q0 106 7 189
q3 44 1 99l-6 99q-9 132 -4 199q4 46 48 45q102 -1 232 11l116 12l116 14l11 1l10 4q11 4 12 16t-9 18l-10 4l-11 3q-182 35 -315 19z" />
    <glyph glyph-name="g" unicode="g" horiz-adv-x="1297" 
d="M792 749q-19 -3 -55 -4l-59 -3q-74 -5 -124 -29l-11 -3l-12 -4q-11 -5 -10 -19q2 -13 16 -17l12 -1l12 -1q54 -8 128 -7l64 2l64 3q57 2 51 -50q-3 -25 -4 -68l-2 -68q-14 -231 -75 -392q-30 -79 -93 -65q-187 41 -247 189q-83 204 -84 510l-1 275q2 154 8 276l7 80
l11 80q14 101 12 162q-1 38 34 70q14 13 34 25l38 21q24 12 43 -7l14 -18l14 -18q36 -37 70 -92q35 -57 70 -146l28 -76l28 -76l7 -13l3 2l1 2q-4 22 10 58l10 28q4 16 2 30q-18 141 -114 326q-42 83 -135 106q-85 21 -170 -14q-116 -49 -196 -126q-92 -87 -116 -190
q-44 -192 -51 -324l-11 -190l-8 -189q-5 -216 17 -381q58 -439 455 -571q156 -51 304 24q138 72 172 229q22 105 13 258l-10 129l-9 129q-3 64 43 67l41 7l41 9l8 2l8 3q7 3 8 12q1 11 -7 15l-8 4l-8 3q-69 34 -281 26z" />
    <glyph glyph-name="h" unicode="h" horiz-adv-x="1398" 
d="M1048 1755q-80 14 -144 -28q-64 -44 -66 -115l-10 -223l-9 -222q-2 -54 -44 -85q-67 -47 -160 -63q-37 -7 -85 -10l-86 -3q-17 0 -21 13l-2 13v13l-2 117q-1 70 -6 116l-20 193l-24 193l-3 27l-3 27q-3 31 -11 50q-20 51 -86 59l-56 6l-56 3q-63 -2 -106 -36
q-42 -33 -39 -79q11 -163 10 -416l-1 -207l1 -208l5 -256l2 -257q-2 -288 -23 -512q-3 -35 19 -52q23 -17 49 2q35 25 98 13q107 -21 141 70q35 91 47 174q25 180 38 408l9 204l8 204q1 50 53 45l74 -9l74 -7q85 -6 148 15q38 13 40 -34l6 -130l7 -129v-189q3 -109 21 -187
l2 -12l2 -14q4 -14 15 -10q12 5 30 7l30 3q37 5 56 28q22 28 56 30q74 4 92 78q29 125 47 308l22 246q10 136 10 245q1 273 -60 490q-22 81 -89 93z" />
    <glyph glyph-name="i" unicode="i" horiz-adv-x="1018" 
d="M663 156l-3 -21l-4 -19q-6 -22 -24 -38q-14 -13 -3 -17l10 -1h11l69 -4l68 -3l11 -2l10 -2q10 -5 10 -18q0 -28 -31 -31l-46 -5l-46 -3q-56 -4 -92 -13q-67 -15 -195 0l-97 11q-54 3 -98 -7q-11 -2 -17 5l-5 8l-4 9q-8 29 22 37q61 14 98 15q50 3 50 53q1 539 -105 1585
q-5 56 -56 51h-42l-41 4q-51 2 -83 -6q-16 -4 -25 8q-5 6 -2 14l8 12q20 30 62 29q101 -4 278 18l139 18q78 8 139 8h34q21 0 34 -4q37 -7 42 -35q3 -23 -31 -35l-30 -9l-30 -7q-9 -4 -28 -5l-28 -4l-11 -3l-8 -6q-9 -9 2 -20q31 -28 38 -74l4 -42l2 -40l26 -191l23 -193
q25 -220 27 -385q7 -355 -32 -642z" />
    <glyph glyph-name="j" unicode="j" horiz-adv-x="1022" 
d="M487 -330q-63 -74 -205 -52q-345 52 -418 360l-3 14l-1 14q1 15 13 22q14 9 28 0l11 -9l8 -11l67 -91l66 -91q86 -113 208 -52q45 23 41 59q-10 88 1 221l10 110l7 110q9 239 8 580l-2 290l-1 290l3 255q1 34 -34 37l-61 3h-62q-74 1 -121 18l-7 2l-6 2q-6 4 -4 13
q1 11 17 12q59 6 139 19l139 23q169 28 279 26l75 -2l74 -2h15l14 -2q15 -3 16 -19q1 -15 -13 -20l-14 -2l-13 -1q-33 -4 -75 -17l-37 -12l-36 -13q-29 -9 -27 -40q38 -530 56 -901q6 -132 -2 -335l-6 -167l-5 -167v-43l1 -43q1 -48 -4 -74q-12 -164 -139 -314z" />
    <glyph glyph-name="k" unicode="k" horiz-adv-x="1346" 
d="M2 1560q1 138 113 179q61 22 94 -35q63 -109 97 -272q11 -53 25 -142l24 -142l1 -11l1 -11q3 -13 10 -20l14 14l12 16q30 43 75 101l76 100q95 123 143 207q10 18 34 32l20 12l21 11q17 9 37 -13q18 -20 2 -45l-49 -76q-31 -47 -48 -78q-17 -29 -38 -73l-36 -76
q-44 -90 -85 -142l-41 -50l-41 -50q-17 -20 2 -30q205 -104 476 -408l47 -50l45 -51q50 -61 70 -116q12 -33 19 -82l6 -43l6 -42q2 -10 -2 -17q-4 -8 -14 -10q-143 -26 -241 74q-123 125 -270 335l-41 59l-41 59q-49 66 -93 110l-4 5l-4 5q-6 6 -12 2q-3 -2 -4 -10
q-1 -7 0 -14q29 -226 23 -600l-3 -40l-6 -39q-7 -49 -55 -57q-57 -9 -61 -70q-3 -46 -44 -23q-40 22 -75 20q-20 -1 -30 14l-7 16l-5 16q-34 115 -41 296q-5 121 -35 339l-23 168q-11 95 -16 170l-9 97l-10 97q-11 117 -9 195v189z" />
    <glyph glyph-name="l" unicode="l" 
d="M414 416v-187l-4 -185q-3 -70 13 -87q15 -18 82 -17l112 -2l112 -4q137 -4 223 4l12 2l12 2q13 0 15 -10q2 -9 -5 -23q-5 -12 -15 -23q-12 -13 -36 -13l-91 -4l-91 -7q-111 -7 -182 0q-85 9 -177 -31q-91 -39 -185 -33l-25 1q-14 -1 -23 -4q-50 -20 -72 6q-15 17 -24 66
q-46 266 -56 629l-5 316l-3 316q-1 78 2 184l7 185q8 227 -5 368q-2 31 19 38q102 37 242 -54q75 -50 99 -140q8 -30 14 -82l4 -41l6 -42q52 -303 47 -663l-1 -47l-1 -19l-1 -14q-17 -155 -19 -385z" />
    <glyph glyph-name="m" unicode="m" horiz-adv-x="1665" 
d="M1459 212l-11 175v9l-1 43l-3 42q-9 75 -7 197l3 158q1 59 11 93q14 46 3 89q-8 29 -3 59q6 36 -2 81l-6 51q-11 93 -37 203q-8 37 -31 74l-13 20l-11 21q-18 36 -57 49l-18 6q-10 4 -16 10q-16 19 -47 16q-62 -7 -145 -3l-26 -2q-20 -4 -22 -23l-2 -19l-1 -19
q2 -30 -19 -55q-43 -52 -79 -165l-13 -36l-53 -150q-29 -85 -45 -151l-36 -137l-6 -23q-4 -12 -13 -20q-10 8 -19 21l-15 23l-63 107q-30 52 -41 80l-59 145q-35 83 -64 142q-46 91 -95 137l-8 7l-5 9q-4 15 -18 36l-11 17l-9 18q-21 52 -78 68q-48 14 -106 12
q-49 -2 -76 -24q-37 -30 -61 -54q-17 -18 -15 -43l5 -68l3 -202l1 -48l4 -48q5 -61 4 -96l2 -62l2 -62l-1 -85l-2 -86v-105l-2 -105q-5 -185 8 -290q3 -23 2 -43q-1 -35 13 -76l17 -53q6 -22 29 -47q25 -28 81 -34q57 -7 90 17q44 30 61 59q45 71 56 120q14 61 19 170l3 94
l2 94l4 73l5 72l5 54l2 53l1 83l-1 84l-5 109q-4 61 -10 108l-3 36l16 -31l13 -31l28 -63q70 -151 141 -254l23 -31l22 -32q15 -24 40 -52l23 -24l23 -24q17 -18 34 -15q44 7 62 28q38 45 61 92l29 62q9 17 14 36l41 153l29 101q3 -68 0 -141l-3 -94v-94q7 -116 3 -201
l1 -26q10 -66 4 -132l-1 -26q5 -53 0 -158q-2 -42 3 -81q7 -48 19 -88q14 -48 5 -136l-8 -101l-6 -100q-5 -67 60 -63q38 3 93 -9l47 -8q72 -12 127 24q46 30 63 67q40 91 46 168q4 47 3 129v64l1 64z" />
    <glyph glyph-name="n" unicode="n" horiz-adv-x="1362" 
d="M795 748q-3 30 -4 72l1 72v57q-5 167 0 377l5 77l7 78l3 94q1 35 6 57q5 16 14 29q13 18 32 13l103 -25q28 -7 51 -25q17 -15 30 -22q43 -23 60 -79l37 -139q5 -19 6 -40l3 -127l3 -90l1 -90q3 -132 -6 -204l-1 -8v-8q1 -8 12 -10l2 -4l2 -7l-1 -20l-16 -155l-2 -6
q-1 -2 -5 0l-9 12l-8 -52l-7 -51q-8 -66 -4 -114q4 -55 -9 -130l-5 -49l-2 -21q-9 -54 -63 -44q-86 16 -129 36q-54 25 -73 80l-11 26l-11 27q-14 31 -17 54l-4 10l-5 9l-125 206q-17 29 -41 76l-79 162l-24 49l-25 50l-17 33l-18 32l-3 2l-4 2q-5 -2 -5 -8l1 -9l14 -108
l14 -107q15 -96 6 -151q-2 -16 1 -41l3 -47l-2 -47q-2 -54 -15 -136l-10 -68l-10 -68q-4 -31 -15 -74l-22 -72l-19 -67q-7 -27 -34 -32l-12 -2q-41 2 -75 -26q-20 -16 -42 6q-10 10 -27 19l-32 17q-25 12 -34 44l-24 87l-24 87l-16 72q-7 40 -7 73q1 35 -2 86l-6 85l-5 117
q-3 67 -11 116l-3 26l-1 27l-14 147l-9 87l-4 88q-4 228 1 385l4 92q3 56 2 92q-1 33 33 45l41 12l41 12l4 1q29 6 65 -6l30 -12l30 -13q35 -14 54 -58l19 -43q11 -26 15 -45q3 -11 12 -21q20 -24 19 -57q-2 -55 40 -114q18 -24 39 -67l69 -142l66 -143l41 -91
q22 -53 36 -94q28 -84 79 -184l19 -40l19 -41l4 -8q4 -4 12 -7q4 101 -3 154z" />
    <glyph glyph-name="o" unicode="o" horiz-adv-x="1183" 
d="M707 344q65 24 103 92l17 34l16 35q11 26 23 66l20 68q25 83 30 151l1 30v29v40l1 39q1 46 -9 78l-1 8l-1 8q-8 69 -32 106q-4 8 -9 22q-5 16 -20 45l-12 23l-12 23q-13 28 -18 49l-4 9l-6 9l-61 85q-17 22 -45 23q-35 1 -56 -6l-14 -4l-15 -2q-47 -2 -91 -47
q-28 -29 -64 -82q-54 -78 -67 -131l-10 -39l-9 -41l-4 -20l-5 -21l-4 -13l-3 -13l-5 -45l-4 -46q-4 -93 5 -181q10 -105 37 -172q37 -97 89 -140l5 -4l4 -5q72 -72 182 -69q32 3 48 9zM1008 1052l6 -37l6 -45l3 -46l7 -92q1 -22 -1 -40l-5 -58l-5 -59l-3 -46l-4 -46l-2 -16
l-3 -16q-20 -97 -56 -193q-21 -53 -55 -101q-30 -42 -87 -79q-35 -22 -50 -37t-36 -24l-42 -16l-44 -16q-60 -19 -129 -2q-94 24 -157 58l-15 8l-50 38l-49 38q-25 21 -57 55q-35 37 -58 79q-47 89 -72 166l-23 72q-12 41 -18 73l-3 15l-2 14l-3 102l-1 102q2 82 19 167
l25 122q4 15 12 38l13 37q20 58 83 156q51 81 130 123q30 17 64 25l45 10q26 7 44 14q19 9 45 4q27 -5 62 0q80 10 149 -12q24 -8 40 -16q67 -39 99 -75q68 -76 100 -142l3 -6l2 -6q10 -45 39 -108q9 -19 15 -50l5 -26l4 -26l4 -21l3 -21q-1 -16 3 -38z" />
    <glyph glyph-name="p" unicode="p" horiz-adv-x="1065" 
d="M754 1236q-13 -36 -40 -63q-45 -45 -86 -90q-69 -76 -170 -129l-11 -6q-17 -8 -19 12l-2 16q7 63 -12 150l-3 20l-1 20l-5 49q-3 28 -11 49l-2 16q-7 81 -57 223l-28 79q-18 43 -36 76q-31 52 9 98q61 69 108 84q23 8 67 12q81 13 162 -51q92 -70 142 -184q8 -18 16 -47
l12 -49q15 -48 5 -134q-7 -60 -38 -151zM928 1393q-1 29 -10 59q-10 37 -17 74q-19 101 -75 188q-63 96 -152 143q-22 12 -52 21l-53 16q-83 24 -162 14q-104 -15 -178 -82l-26 -25q-20 -23 -43 -6q-32 23 -79 3l-13 -4l-13 -5q-21 -8 -36 -25q-19 -21 -12 -43l5 -22l4 -21
q32 -136 28 -257l1 -24l3 -24l2 -12l2 -12l4 -151l2 -76l25 -310q2 -35 1 -60q-4 -51 -3 -122l3 -121l2 -180l1 -133q2 -75 8 -134l9 -119l1 -14l2 -14q9 -40 48 -36q21 3 54 15l49 22q30 13 51 18q13 4 26 14l22 21l10 12l10 13q69 79 72 177q2 76 17 143q11 50 3 118
q-5 41 0 72q7 54 2 104l-3 23v24q4 55 -6 152l-3 31q-1 25 25 29l20 3q41 2 83 25q39 21 61 30q64 24 124 84l88 93q48 51 55 95l3 10l5 9q9 17 8 42z" />
    <glyph glyph-name="q" unicode="q" horiz-adv-x="1457" 
d="M431 1270q-47 -141 -50 -249l-4 -151l1 -22l2 -21q10 -53 11 -104q0 -27 8 -49l27 -85q33 -107 116 -213l10 -11q80 -70 157 -99l94 -36q14 -5 26 -5q5 1 9 5q3 4 1 9l-14 32q-71 144 -106 244q-36 100 -79 198l-10 26l-9 25q-61 153 -112 297l-32 90q-18 51 -28 90
l-4 17q-3 10 -10 17zM1005 975l-11 59l-11 59q-10 50 -23 78q-14 28 -22 57q-16 56 -59 143q-39 81 -138 220q-21 29 -48 44q-37 21 -49 -16q-17 -54 -70 -91q-20 -14 -38 -38q-10 -14 -5 -25q8 -19 18 -55l8 -28l9 -28q26 -68 39 -129q11 -46 34 -123l18 -61l20 -61
q22 -72 32 -124q5 -19 10 -29q21 -36 41 -104l14 -37q60 -146 94 -237l18 -45l21 -44q13 -25 31 -2q9 11 15 27l7 30l16 67q3 13 14 18q13 6 4 18q-5 6 -4 15l4 15q27 125 25 252q3 64 -14 175zM18 1086q16 101 52 199l23 61l23 62q44 108 122 201q10 13 27 26l30 21l35 24
q21 14 34 26q18 17 50 18l56 2q33 1 56 -2q61 -8 119 0q61 8 122 -38q77 -59 129 -148q82 -138 114 -212l30 -72l29 -73q31 -81 45 -150q17 -85 23 -177l6 -71q3 -42 3 -72v-4q7 -19 5 -45l-2 -23l-4 -23l-14 -113q-9 -66 -21 -113q-5 -19 11 -25q13 -5 5 -19l-13 -19
q-22 -28 -22 -52q0 -25 -25 -42l-13 -8q-32 -20 -33 -26q-1 -4 14 -36l31 -58l33 -57q8 -15 21 -23q19 -12 40 -46l44 -71l45 -70l5 -6l3 -7l1 -5l-1 -5l-4 -3l-6 -1l-18 7q-80 36 -172 118q-93 83 -138 162q-10 18 -22 0l-2 -3q-15 -36 -62 -48l-4 -1l-80 -14
q-47 -8 -80 -10l-33 -1h-33q-129 -2 -230 78l-74 57q-90 71 -135 157l-54 95q-43 76 -74 190l-18 68q-11 41 -14 89q-3 35 -2 75q1 156 17 256z" />
    <glyph glyph-name="r" unicode="r" horiz-adv-x="1247" 
d="M382 1071l1 -36q1 -16 6 -31q5 -18 22 -11l33 14l32 16q36 18 59 41q31 29 35 65q9 84 -7 148q-27 102 -118 161q-26 16 -49 6l-11 -4l-12 -4q-14 -5 -13 -21l16 -224l7 -120h-1zM382 472q1 -27 -5 -64q-5 -30 -4 -67l-2 -71l-4 -69l-2 -293q0 -48 -14 -78l-8 -18l-7 -19
q-8 -23 -17 -36l-8 -12l-8 -11q-21 -24 -51 -11l-56 26l-56 26q-56 25 -64 95l-7 79l-7 72l-4 72l-3 62l-7 62l-22 195q-6 49 -10 122l-8 121q-8 118 -7 275l2 137l2 137l3 173l3 172q1 52 29 86q24 29 58 29q43 -1 64 -5l47 -9l47 -10q28 -6 42 -34q20 -41 40 -60l6 -8
l4 -9q13 -26 42 -20l8 1l8 2q48 17 102 -17q52 -32 116 -125q47 -67 58 -135q15 -92 -28 -174q-9 -18 -30 -42l-16 -20l-15 -21q-10 -14 -35 -26l-26 -11q-24 -12 -12 -35l24 -50l26 -50l34 -55l34 -54l8 -12l7 -11q34 -63 92 -154l47 -75l48 -75l16 -23q25 -32 54 -77
l51 -79l62 -98q19 -30 32 -65q15 -41 4 -66q-4 -11 -1 -23q4 -16 -1 -34l-5 -16l-6 -16q-3 -9 -14 -13q-27 -11 -34 -9q-8 2 -25 25l-18 27q-12 23 -33 39q-23 18 -42 48l-46 70l-15 19q-28 30 -66 81l-31 42l-31 41q-71 89 -109 149l-44 67l-45 66q-37 54 -65 115l-14 29
l-17 29q-20 -132 -15 -226z" />
    <glyph glyph-name="s" unicode="s" horiz-adv-x="1160" 
d="M803 660q4 -7 10 -17l10 -20q14 -27 23 -45q30 -57 51 -103q60 -137 63 -233v-8q0 -243 -360 -243q-44 0 -93 4l-11 1q-178 14 -280 110q-71 65 -130 207q-22 51 -40 119l-13 60l-13 62l-2 7l-2 8v6q0 6 1 11q5 21 38 25h5q24 0 35 -18q4 -7 7 -18l4 -9l3 -7
q14 -38 39 -108l18 -53l19 -55q61 -153 165 -224q33 -21 68 -36q40 -15 73 -15h4q137 4 137 123v14q-11 174 -275 606q-21 32 -67 120q-52 96 -104 197q-138 274 -167 376q-19 70 -19 127q0 145 121 217q98 57 244 57q44 0 92 -5q80 -9 135 -62q115 -109 140 -304l1 -5v-6
q1 -3 1 -6t-1 -6q-6 -15 -26 -15h-2q-12 0 -19 10q-2 3 -3 10l-2 5l-1 4q-6 17 -13 43l-11 44q-15 51 -34 84q-20 34 -53 74q-68 67 -173 74q-12 1 -24 1q-24 0 -47 -4l-24 -4l-8 -2l-3 -1h-2q-44 -15 -64 -51q-9 -17 -9 -35q0 -16 9 -32l27 -41l27 -41q31 -48 50 -81
q24 -46 64 -124l32 -62l32 -62l131 -242l131 -243l43 -80q26 -47 42 -80z" />
    <glyph glyph-name="t" unicode="t" horiz-adv-x="1074" 
d="M901 1905l-51 6l-219 11l-81 3l-82 -1q-156 -11 -320 -56q-56 -16 -122 -24l-24 -4l-23 -4q-82 -22 -196 -43l-28 -5l-28 -4q-27 -5 -21 -16q3 -6 10 -8l12 -2q85 -7 129 -1q46 6 98 8l52 1h53q62 2 105 9l12 1q13 -1 15 -13l2 -17q-1 -113 9 -214l2 -45l-1 -45l2 -88
l3 -88l4 -92l1 -92l1 -112l-1 -111l-5 -270l-4 -65l-3 -64l1 -165l1 -165q0 -126 15 -197l5 -40l6 -40l6 -23l7 -22q9 -29 38 -30q16 -1 37 -7q26 -7 55 2l41 15q24 10 45 13q45 7 61 49q15 41 50 89q26 37 35 96l11 85l13 110q4 29 3 67l-2 66q-2 79 -9 141l-6 58l-4 58
q-1 131 -24 269q-5 33 -7 85l-4 86l-2 55l-2 56l-7 109l-4 109q0 24 -6 38q-23 50 -14 104l1 19l-1 20q-3 30 1 51q6 25 -2 68l-6 40l-4 41q-2 17 17 19l13 1q88 6 165 26q83 21 131 18l41 2l40 6q27 4 27 29q0 16 -22 23z" />
    <glyph glyph-name="u" unicode="u" horiz-adv-x="1389" 
d="M768 447q-16 -34 -38 -60q-18 -20 -37 -49l-32 -52q-30 -50 -93 -122l-25 -25l-25 -25q-45 -46 -80 -63l-13 -9l-13 -9q-17 -11 -24 -26l-6 -12l-8 -11q-22 -38 -68 -27q-19 5 -48 17q-54 22 -126 65q-54 33 -67 102q-8 39 -10 87q-3 84 -9 141q-4 35 -5 91l-2 90l-7 107
l-5 106l-8 104q-4 64 -4 104l-2 69l-5 69q-8 127 -8 319v202q1 35 33 25l14 -4l13 -2q16 1 39 -3l39 -6q48 -6 71 -30q7 -7 22 -9l12 -2l9 -5l8 -7l7 -8q8 -9 17 -12q76 -23 85 -114l8 -75l7 -74l4 -67l6 -66l3 -52l1 -51l1 -39l3 -40l2 -35l2 -193l1 -42l3 -41l1 -27v-28
l7 -124q4 -75 3 -124q-1 -43 42 -76q14 -11 29 2q13 11 26 35l102 191l69 129q17 32 37 76l34 78l17 40l17 40q21 50 22 95l3 87l3 86q-1 74 7 173q3 39 17 97q8 31 47 62q53 43 127 71q50 19 97 -15l6 -5l6 -5q45 -23 40 -76l-3 -72v-73l-1 -16v-15q5 -34 6 -81l1 -81
l3 -79l5 -102l3 -31l1 -10l1 -10l-1 -49l2 -49q3 -65 0 -99q-5 -62 -6 -175l-1 -88l-4 -87l-6 -87q-4 -48 -13 -85l-2 -20q1 -35 -24 -69q-15 -20 -32 -63q-24 -59 -92 -72q-36 -7 -94 -6q-37 1 -36 33q2 40 -27 79q-7 10 -9 22l-11 56q-7 33 -8 56l-4 101l-5 100l-5 31
l-3 16l-4 15q-5 20 -3 37q-17 -15 -29 -40z" />
    <glyph glyph-name="v" unicode="v" horiz-adv-x="1257" 
d="M660 344l3 10l25 89l23 90l15 68l14 69l36 171q22 96 43 170q23 80 60 234l24 106l23 106l13 54l13 53q17 59 38 104l9 28l9 29q11 35 37 8q12 -13 9 -29l-7 -38l-17 -121l-15 -122q-5 -44 -21 -102q-17 -57 -32 -155l-18 -109q-10 -63 -20 -108l-16 -77l-14 -78
q-5 -29 -17 -73l-20 -72q-22 -85 -47 -169l-25 -80l-26 -80l-23 -70l-22 -70l-16 -47l-18 -45q-12 -29 -39 -39q-12 -4 -21 -17q-17 -26 -50 -26q-30 1 -49 -4l-5 -2h-5q-64 10 -97 24q-24 9 -35 38q-14 34 -20 56q-10 36 -34 95l-13 37l-13 36q-21 59 -50 151l-48 152
q-13 39 -27 98l-22 99l-3 14q-16 46 -31 117l-11 59l-13 59l-14 67l-13 67q-16 82 -30 133q-9 31 -15 74l-10 74l-5 39q-7 45 38 56l20 4l21 3l16 1l15 2q63 16 125 -40l9 -10q12 -15 29 -18q44 -9 67 -57l10 -22q49 -131 66 -228v-4q9 -28 18 -80l7 -40l9 -41
q13 -52 30 -107l32 -102l29 -103l5 -15l5 -15l48 -146q17 -55 26 -116l7 -36l10 -36l2 -2l3 -2q4 3 6 9z" />
    <glyph glyph-name="w" unicode="w" horiz-adv-x="1768" 
d="M685 405l2 6l1 5q21 73 38 195q11 82 41 182q29 103 46 173q7 33 52 69q12 10 26 -1q11 -10 25 -5q21 7 46 -3l9 -3l10 -1l64 -13q108 -25 146 -138q59 -170 85 -319q11 -63 35 -111l15 -34l15 -34l2 -2l4 -2q6 -1 8 7l15 80q9 46 11 81l5 62l6 62l8 75l9 75l12 79l10 79
l2 20l1 19q-3 22 -1 55l2 54q1 75 36 166q12 31 51 44q28 9 30 -22l3 -81q0 -65 5 -113q8 -72 -3 -136q-6 -30 -7 -85q-3 -77 -20 -181l-11 -66l-9 -65q-20 -158 -73 -366q-9 -40 0 -61q8 -17 -7 -32q-17 -16 -15 -46l1 -20q-2 -25 -23 -33l-7 -3l-7 -3q-44 -34 -107 -16
l-21 3l-21 1q-34 1 -82 22q-12 5 -24 20q-59 75 -87 155l-37 98l-38 98q-25 63 -52 159q-10 39 -29 72l-7 16l-8 16l-3 8l-3 8q-4 9 -10 14q-7 -4 -8 -11l-1 -7v-6q-11 -97 -41 -226q-8 -36 -16 -90l-15 -90l-10 -64l-11 -63q-8 -39 -14 -88q-5 -44 -15 -92q-11 -52 -64 -44
l-12 2l-11 2q-24 0 -39 14q-14 13 -43 18q-42 8 -61 23q-5 5 -13 7l-16 3q-32 4 -46 37q-67 152 -91 256q-20 87 -40 147q-14 40 -30 99l-26 99q-24 91 -40 139q-21 63 -35 147q-9 63 -27 142l-33 140l-17 72l-14 72l-10 46l-12 45l-6 16l-8 16l-7 14l-6 14q-12 42 22 64
q24 16 57 42t95 43q54 14 106 -15q51 -29 64 -79q15 -55 54 -102q26 -32 39 -80l24 -80l24 -80l9 -30l35 -138l33 -138l32 -146l31 -147l20 -97q11 -56 17 -101q8 5 11 12z" />
    <glyph glyph-name="x" unicode="x" horiz-adv-x="1208" 
d="M971 194l-15 32l-16 32q-19 34 -30 64q-10 28 -33 70l-26 47q-15 28 -22 49q-17 47 -47 116l-50 115q-26 61 -84 174q-22 42 -10 80l2 12l4 12l25 71l25 70q31 80 62 137l50 90l50 91l34 56l34 56l31 58q6 12 8 23q4 21 -9 33t-33 6q-60 -19 -85 -60l-19 -29l-20 -29
l-39 -58q-23 -35 -37 -60l-77 -150l-76 -151l-10 -19l-7 -11l-7 -13l-14 23l-13 21q-14 23 -21 40l-34 75l-36 74l-9 21l-10 20q-17 29 -44 62l-49 58q-14 17 -41 27q-16 6 -61 3q-44 -2 -60 -9l-7 -5q-36 -19 -76 -49q-44 -33 -38 -81q3 -21 -10 -34q-21 -20 -13 -57
q18 -81 68 -134q17 -18 25 -33l17 -33l18 -32q26 -37 50 -90l37 -85l37 -85q43 -91 71 -180q10 -35 2 -65l-31 -109q-18 -64 -34 -108q-31 -88 -67 -242q-30 -127 -63 -204l-7 -19q-3 -16 17 -27q14 -8 22 3l21 28q12 16 18 30l33 77l31 79l60 157l12 31l11 31l51 121
q4 9 11 9q7 1 12 -7l19 -31l19 -32q10 -14 20 -41l8 -21l10 -20q29 -58 47 -105q25 -68 79 -130q35 -40 89 -42l83 1l43 3l42 6q47 10 78 37l11 6l12 4q11 5 20 20q19 34 -3 66q-17 23 -36 63z" />
    <glyph glyph-name="y" unicode="y" 
d="M893 1887q-18 22 -46 41l-26 17l-26 16q-32 19 -55 -13q-22 -30 -35 -68q-17 -53 -50 -128l-33 -74l-32 -74q-23 -51 -51 -128l-46 -128l-33 -93l-31 -93l-21 -47q-2 -6 -8 -6t-9 6l-27 48q-67 118 -104 196l-53 108l-53 107l-50 109q-27 62 -44 111q-15 41 -56 115
q-22 40 -74 44q-30 2 -24 -26q4 -21 16 -54l39 -106q23 -64 37 -107q32 -106 89 -240q96 -225 202 -386l16 -28l16 -28q21 -34 9 -70q-5 -14 -8 -33q-12 -83 -40 -190l-25 -94l-26 -94q-70 -257 -96 -390l-15 -74l-15 -74q-16 -86 -20 -151l-1 -8q-9 -52 17 -96
q12 -22 34 -31q42 -17 99 -27q23 -4 42 1q82 22 112 85l8 15l9 14q59 101 78 185q18 79 33 124l16 48l16 49q18 54 38 136l16 69l17 68q29 117 60 209l30 92l28 92l27 105l25 106l19 84l19 83l16 60l14 60q14 69 34 124q15 44 18 74l17 175l7 61l-5 30l-5 27q-4 34 -30 65z
" />
    <glyph glyph-name="z" unicode="z" horiz-adv-x="1259" 
d="M967 973l-33 -3l-32 -7q-22 -6 -38 -3q-15 3 -9 16l17 31q37 58 62 119l18 42q11 23 23 40q8 11 16 32l5 18l7 16l2 11v12q-3 28 -17 51q-15 23 -25 47t-34 35q-80 37 -151 45l-59 5l-59 3h-54l-54 -1l-78 1q-44 0 -79 -4q-38 -5 -76 -2q-58 6 -103 -7q-41 -11 -68 -11
l-38 -4l-38 -5l-15 -4l-14 -6q-22 -11 0 -24l14 -6l42 -13q25 -8 41 -17q6 -3 16 -4l17 1q30 1 58 -5q43 -9 114 -10l41 -1l40 -3q39 -6 88 -1l28 3l29 1q48 -3 34 -49l-11 -30l-10 -32q-6 -29 -21 -63l-15 -30l-16 -30q-13 -25 -37 -60l-41 -59q-11 -16 -28 -15h-29l-29 3
q-77 12 -188 -24l-18 -8q-8 -4 -6 -13q2 -5 8 -7l17 -3l17 -3l103 -8q17 -1 40 -7l39 -9q12 -3 7 -15l-11 -21l-59 -90l-60 -89l-20 -30l-21 -31q-22 -35 -34 -64l-44 -108q-26 -62 -50 -106q-25 -48 -47 -116l-18 -59l-18 -60q-5 -17 -5 -42q0 -33 29 -46l17 -8l17 -9
q54 -31 115 -14q22 6 57 3q132 -11 272 3l21 2l21 1q29 -2 66 1l65 5l23 2l23 1l53 1l54 5q62 7 96 3h15h16q11 0 15 9q4 8 14 11l15 5l10 5q4 4 4 11q0 5 -5 8l-8 4l-16 6l-16 6q-33 17 -86 17l-35 -1l-117 2q-68 0 -117 -5q-20 -3 -34 -1h-39l-38 -2l-19 -2h-19
q-42 2 -100 -9q-23 -4 -56 3l21 35l19 31l48 79q28 46 50 77q24 33 58 88l28 45l28 44q65 99 93 155l16 26q10 16 14 27q3 10 12 20q12 13 27 37l36 63q17 31 51 37l60 12q36 7 61 7q26 1 58 14l27 12l27 12q12 4 12 18q0 11 -14 17q-44 19 -78 17z" />
  </font>
</defs>
</svg>
